<?xml version="1.0" ?><!DOCTYPE svg  PUBLIC '-//W3C//DTD SVG 1.0//EN'  'http://www.w3.org/TR/2001/REC-SVG-20010904/DTD/svg10.dtd'><svg height="32" style="overflow:visible;enable-background:new 0 0 32 32" viewBox="0 0 32 32" width="32" xml:space="preserve" xmlns="http://www.w3.org/2000/svg" xmlns:xlink="http://www.w3.org/1999/xlink"><g><g id="Instagram_1_"><g id="Instagram"><path d="M28,0H4C1.8,0,0,1.8,0,4v8h32V4C32,1.8,30.2,0,28,0z" id="Head" style="fill:#895A4D;"/><path d="M2,0.6V12h2V0C3.3,0,2.6,0.2,2,0.6z" id="Red_x5F_Stripes" style="fill:#FF3939;"/><rect height="12" id="Yellow_x5F_Stripes" style="fill:#FED049;" width="2" x="4"/><rect height="12" id="Green_x5F_Stripes" style="fill:#10DD76;" width="2" x="6"/><rect height="12" id="Blue_x5F_Stripes" style="fill:#5FCCFF;" width="2" x="8"/><circle cx="26" cy="6" id="Lens_1_" r="3" style="fill:#162838;"/><circle cx="26" cy="6" id="Lens_x5F_Outer" r="1.5" style="fill:#2C4356;"/><circle cx="26" cy="6" id="Lens_x5F_Inside" r="0.5" style="fill:#47637A;"/><path d="M0,12v16c0,2.2,1.8,4,4,4h24c2.2,0,4-1.8,4-4V12H0z" id="Body" style="fill:#E5E0DC;"/><g id="Shadow"><polygon points="24.7,12 22.4,9.6 22.4,12 " style="fill:#75483D;"/><path d="M20,12L9.6,22.4l9.6,9.6H28c2.2,0,4-1.8,4-4v-8.7L24.7,12H20z" style="fill:#D0CBC5;"/></g><circle cx="16" cy="16" id="Lens" r="9" style="fill:#DCD7D3;"/><circle cx="16" cy="16" id="Inside_x5F_Lens" r="7" style="fill:#162838;"/><circle cx="16" cy="16" id="_x32_nd_Inner_Circle" r="4" style="fill:#2C4356;"/><circle cx="16" cy="16" id="Middle_Circle" r="2" style="fill:#162838;"/><circle cx="18.5" cy="13.5" id="Reflection" r="1.5" style="fill:#47637A;"/></g></g></g></svg>