<?xml version="1.0" ?><!DOCTYPE svg  PUBLIC '-//W3C//DTD SVG 1.1//EN'  'http://www.w3.org/Graphics/SVG/1.1/DTD/svg11.dtd'><svg style="enable-background:new 0 0 200 200;" version="1.1" viewBox="0 0 200 200" xml:space="preserve" xmlns="http://www.w3.org/2000/svg" xmlns:xlink="http://www.w3.org/1999/xlink"><style type="text/css">
	.st0{fill:#0087BC;}
	.st1{fill:#F2F2F2;}
	.st2{fill:#F2F2F2;stroke:#000000;stroke-width:3;stroke-linecap:round;stroke-linejoin:round;stroke-miterlimit:10;}
	.st3{opacity:0.3;fill:#F2F2F2;}
	.st4{fill:#E84236;}
	.st5{fill:#FFFFFF;stroke:#000000;stroke-width:3;stroke-linecap:round;stroke-linejoin:round;stroke-miterlimit:10;}
	.st6{fill:#5C337F;}
	.st7{fill:#6988B7;}
	.st8{fill:#0067E3;}
	.st9{fill:#FFF200;}
	.st10{fill:#FFFFFF;stroke:#000000;stroke-width:5;stroke-linecap:round;stroke-linejoin:round;stroke-miterlimit:10;}
	.st11{opacity:0.66;fill:#FFFFFF;}
	.st12{fill:#17CB2D;}
	.st13{fill:#FFFFFF;}
	.st14{opacity:0.4;fill:#F2F2F2;}
	.st15{fill:#9E0A03;}
	.st16{fill:#CCCCCC;stroke:#000000;stroke-width:3;stroke-linecap:round;stroke-linejoin:round;stroke-miterlimit:10;}
	.st17{fill:#E6E6E6;stroke:#000000;stroke-width:3;stroke-linecap:round;stroke-linejoin:round;stroke-miterlimit:10;}
	.st18{fill:#FF233D;}
	.st19{fill:#F73E26;}
	.st20{fill:#F2F2F2;stroke:#000000;stroke-width:4;stroke-linecap:round;stroke-linejoin:round;stroke-miterlimit:10;}
	.st21{stroke:#000000;stroke-width:4;stroke-linecap:round;stroke-linejoin:round;stroke-miterlimit:10;}
	.st22{fill:none;stroke:#000000;stroke-width:4;stroke-linecap:round;stroke-linejoin:round;stroke-miterlimit:10;}
	.st23{fill:url(#SVGID_1_);}
	.st24{fill:#B22483;}
	.st25{fill:#12A0CC;}
	.st26{fill:#FF1E13;}
	.st27{fill:#FF1E13;stroke:#000000;stroke-width:3;stroke-linecap:round;stroke-linejoin:round;stroke-miterlimit:10;}
	.st28{fill:#1F41CC;}
</style><g><g id="Artboard_16"/><g id="Linked_In"><g id="In"/><g id="Bubble_13_"/></g><g id="Google_Plus"><g id="Icon_3_"/><g id="Bubble_12_"/></g><g id="Twitch"><g id="Twitch_1_"/><g id="Bubble_11_"/></g><g id="Discord"><g id="Controller"/><g id="Bubble_10_"/></g><g id="Behance"><g id="BE"/><g id="Bubble_9_"/></g><g id="SnapChat"><g><path class="st9" d="M100,197.5c-53.8,0-97.5-43.7-97.5-97.5S46.2,2.5,100,2.5s97.5,43.7,97.5,97.5S153.8,197.5,100,197.5z"/><path d="M100,5c52.4,0,95,42.6,95,95s-42.6,95-95,95S5,152.4,5,100S47.6,5,100,5 M100,0C44.8,0,0,44.8,0,100s44.8,100,100,100      s100-44.8,100-100S155.2,0,100,0L100,0z"/></g><g id="Snap_Icon"/><g id="Ghost"><path class="st10" d="M159.6,141.4c-11.1-6.3-25.1-22.3-25.4-32.6c-0.1-3.3,10.8-6.2,10.8-6.2c5-1.5,9.9-4,6.2-7.6      c-1.9-1.8-6.2-3.1-8.8-2.6c-2.6,0.5-3.7,2-6.2,2.8c-0.8,0.2-3.7,0-4.7-1l0.7-16.9c-0.1-17.7-14.3-31.5-31.7-31.5      c-0.1,0-0.2,0-0.4,0c-0.1,0-0.2,0-0.4,0c-17.4,0-31.6,13.8-31.7,31.5l0.7,16.9c-1,0.9-3.9,1.2-4.7,1c-2.6-0.7-3.6-2.3-6.2-2.8      c-2.6-0.5-6.9,0.7-8.8,2.6c-3.7,3.6,1.2,6.2,6.2,7.6c0,0,10.9,2.9,10.8,6.2c-0.3,10.3-14.3,26.3-25.4,32.6      c-3.9,2.2,17.1,5.4,17.1,5.4s-0.1,3.3,0.7,3.4c4.9,1,14.3-4.9,19.2-4.9c6.2,0,15.8,10,21.9,8.7c0.3,0,0.6,0,0.9,0      c6.3-0.6,15.8-8.7,22.1-8.7c5,0,14.4,5.8,19.2,4.9c0.9-0.2,0.7-3.4,0.7-3.4S163.5,143.6,159.6,141.4z"/></g><g id="Dots"><circle cx="108.5" cy="39" r="2.5"/><circle cx="108.5" cy="32.3" r="2.5"/><circle cx="115.3" cy="32.3" r="2.5"/><circle cx="92.6" cy="39" r="2.5"/><circle cx="121.8" cy="39" r="2.5"/><circle cx="115.3" cy="39" r="2.5"/><circle cx="127.8" cy="163.8" r="2.5"/><circle cx="135" cy="163.8" r="2.5"/><circle cx="121.8" cy="156.7" r="2.5"/><circle cx="148.8" cy="81" r="2.5"/><circle cx="161.3" cy="81" r="2.5"/><circle cx="155" cy="81" r="2.5"/><circle cx="155" cy="58.9" r="2.5"/><circle cx="161.3" cy="58.9" r="2.5"/><circle cx="161.3" cy="52.5" r="2.5"/><circle cx="161.3" cy="45.8" r="2.5"/><circle cx="140" cy="45.8" r="2.5"/><circle cx="140" cy="39" r="2.5"/><circle cx="54.7" cy="157.7" r="2.5"/><circle cx="62" cy="157.7" r="2.5"/><circle cx="48.7" cy="150.7" r="2.5"/><circle cx="82.8" cy="164.8" r="2.5"/><circle cx="90.7" cy="164.8" r="2.5"/><circle cx="76.8" cy="157.7" r="2.5"/><circle cx="82.8" cy="171.3" r="2.5"/><circle cx="90.7" cy="171.3" r="2.5"/><circle cx="109.2" cy="164.8" r="2.5"/><circle cx="90.7" cy="158.2" r="2.5"/><circle cx="48.7" cy="120.3" r="2.5"/><circle cx="48.7" cy="126.8" r="2.5"/><circle cx="48.7" cy="113.7" r="2.5"/><circle cx="42" cy="113.7" r="2.5"/><circle cx="42" cy="120.3" r="2.5"/><circle cx="42" cy="107.1" r="2.5"/><circle cx="57.8" cy="71.9" r="2.5"/><circle cx="57.8" cy="78.5" r="2.5"/><circle cx="57.8" cy="65.3" r="2.5"/><circle cx="44.6" cy="72.6" r="2.5"/><circle cx="57.8" cy="79.4" r="2.5"/><circle cx="51.3" cy="79.4" r="2.5"/><circle cx="154.6" cy="105.3" r="2.5"/><circle cx="161.4" cy="105.3" r="2.5"/><circle cx="167.9" cy="112.1" r="2.5"/><circle cx="161.4" cy="112.1" r="2.5"/></g><g id="Bubble_8_"><path class="st11" d="M100,5C47.5,5,5,47.5,5,100s42.5,95,95,95s95-42.5,95-95S152.5,5,100,5z M100,190c-49.7,0-90-40.3-90-90      s40.3-90,90-90s90,40.3,90,90S149.7,190,100,190z"/></g></g><g id="WhatsApp"><g id="Icon_2_"/><g id="Bubble_7_"/></g><g id="Flipboard"><g id="Bubble_6_"/><g id="Icon_1_"/></g><g id="Pinterest"><g id="Bubble_5_"/><g id="Icon"/></g><g id="Reddit"><g id="Reddit_Icon"/><g id="Bubble_1_"/></g><g id="Tumblr"><g id="Layer_21"/><g id="Bubble"/></g><g id="Instagram"><g id="Layer_20"/><g id="Bubble_4_"/></g><g id="Twitter"><g id="Twitter_Bird"/><g id="Bubble_3_"/></g><g id="YouTube"><g id="YouTube_Button"/><g id="Bubble_2_"/></g><g id="Facebook_Icon"><g id="Facebook"/><g id="Bubble_14_"/></g></g></svg>