<?xml version="1.0" encoding="utf-8"?>
<!-- Generator: Adobe Illustrator 16.0.0, SVG Export Plug-In . SVG Version: 6.00 Build 0)  -->
<!DOCTYPE svg PUBLIC "-//W3C//DTD SVG 1.1//EN" "http://www.w3.org/Graphics/SVG/1.1/DTD/svg11.dtd">
<svg version="1.1" id="Layer_1" xmlns="http://www.w3.org/2000/svg" xmlns:xlink="http://www.w3.org/1999/xlink" x="0px" y="0px"
	 width="237.869px" height="44.787px" viewBox="42 29.527 237.869 44.787" enable-background="new 42 29.527 237.869 44.787"
	 xml:space="preserve">
<polygon fill="#FFFFFF" points="57.738,50.958 57.738,29.592 59.873,29.592 59.873,74.313 57.738,74.313 57.738,53.015 
	44.133,53.015 44.133,74.313 42,74.313 42,29.592 44.133,29.592 44.133,50.958 "/>
<path fill="#FFFFFF" d="M70.052,58.59h10.871l-5.469-23.357L70.052,58.59z M81.39,60.646H69.519l-3.068,13.668h-2.134l3.535-15.526
	V58.59l6.803-28.997h1.666l10.271,44.721h-2.135L81.39,60.646z"/>
<path fill="#FFFFFF" d="M88.193,41.404c0-4.844,1.267-7.896,3.134-9.62c1.868-1.726,4.269-2.19,6.469-2.19
	c2.135,0,4.535,0.464,6.403,2.19c1.867,1.724,3.134,4.776,3.134,9.62v1.061h-2.134v-1.061c0-6.834-2.601-9.754-7.403-9.754
	c-4.868,0-7.469,2.92-7.469,9.754v21.034c0,6.834,2.467,9.819,7.469,9.819c2.402,0,4.269-0.795,5.536-2.321
	c1.267-1.659,1.867-4.114,1.867-7.498v-1.062h2.134v1.062c0,4.976-1.267,7.83-3.134,9.621c-1.868,1.79-4.268,2.255-6.403,2.255
	c-2.2,0-4.601-0.465-6.469-2.255c-1.867-1.791-3.134-4.646-3.134-9.621V41.404z"/>
<polygon fill="#FFFFFF" points="129.008,29.593 131.543,29.593 118.205,50.958 131.543,74.314 129.142,74.314 117.004,53.148 
	113.271,58.789 113.271,74.314 111.136,74.314 111.136,29.593 113.271,29.593 113.271,55.006 "/>
<polygon fill="#FFFFFF" points="151.417,29.593 151.417,31.65 137.346,31.65 137.346,50.893 149.416,50.893 149.416,52.948 
	137.346,52.948 137.346,72.255 151.417,72.255 151.417,74.314 135.278,74.314 135.278,29.593 "/>
<path fill="#FFFFFF" d="M157.62,51.224h6.003c5.935,0,9.003-2.92,9.003-9.82c0-6.967-1.734-9.754-7.67-9.754h-7.336V51.224z
	 M174.16,74.248h-2.134V61.84c0-5.374-3.068-8.493-8.403-8.493h-6.003v20.9h-2.067V29.527h9.403c7.203,0,9.737,3.715,9.737,11.877
	c0,3.981-0.801,6.967-2.468,8.891c-0.733,0.863-2.267,1.526-3.334,2.058c0.867,0.397,1.601,0.928,2.267,1.592
	c2.002,1.923,3.002,4.511,3.002,7.895V74.248L174.16,74.248z"/>
<path fill="#FFFFFF" d="M178.069,61.443h2.067v0.995c0,4.444,1.134,6.833,2.601,8.161c1.467,1.326,3.335,1.592,4.935,1.592
	c4.802,0,7.537-1.99,7.537-7.896c0-9.953-17.14-12.673-17.14-24.219c0-6.701,3.468-10.549,9.603-10.549
	c6.335,0,9.672,4.18,9.672,11.877v1.061h-2.136v-1.061c0-6.701-2.47-9.754-7.537-9.754c-4.801,0-7.536,2.456-7.536,8.228
	c0,10.616,17.208,12.74,17.208,24.218c0,6.636-3.471,10.151-9.673,10.151c-6.402,0-9.603-3.914-9.603-11.811L178.069,61.443
	L178.069,61.443z"/>
<path fill="#FFFFFF" d="M204.038,31.65v19.242h6.002c5.868,0,8.337-2.919,8.337-9.622c0-6.899-2.4-9.62-8.337-9.62H204.038z
	 M204.038,52.949v21.364h-2.067v-44.72h8.069c7.202,0,10.472,3.915,10.472,11.677c0,7.764-3.27,11.679-10.472,11.679H204.038z"/>
<path fill="#FFFFFF" d="M222.512,58.59h10.871l-5.469-23.357L222.512,58.59z M233.852,60.646H221.98l-3.067,13.668h-2.136
	l3.535-15.526V58.59l6.801-28.997h1.668l10.271,44.721h-2.136L233.852,60.646z"/>
<path fill="#FFFFFF" d="M240.654,41.404c0-4.844,1.268-7.896,3.135-9.62c1.867-1.726,4.268-2.19,6.468-2.19
	c2.136,0,4.536,0.464,6.403,2.19c1.867,1.724,3.134,4.776,3.134,9.62v1.061h-2.134v-1.061c0-6.834-2.6-9.754-7.403-9.754
	c-4.866,0-7.469,2.92-7.469,9.754v21.034c0,6.834,2.467,9.819,7.469,9.819c2.401,0,4.269-0.795,5.536-2.321
	c1.268-1.659,1.867-4.114,1.867-7.498v-1.062h2.134v1.062c0,4.976-1.267,7.83-3.134,9.621c-1.867,1.79-4.268,2.255-6.403,2.255
	c-2.2,0-4.601-0.465-6.468-2.255c-1.867-1.791-3.135-4.646-3.135-9.621V41.404z"/>
<polygon fill="#FFFFFF" points="279.869,29.593 279.869,31.65 265.797,31.65 265.797,50.893 277.869,50.893 277.869,52.948 
	265.797,52.948 265.797,72.255 279.869,72.255 279.869,74.314 263.729,74.314 263.729,29.593 "/>
</svg>
