<?xml version="1.0" encoding="UTF-8" standalone="no"?>
<!DOCTYPE svg PUBLIC "-//W3C//DTD SVG 1.1//EN" "http://www.w3.org/Graphics/SVG/1.1/DTD/svg11.dtd">
<svg width="100%" height="100%" viewBox="0 0 438 129" version="1.1" xmlns="http://www.w3.org/2000/svg" xmlns:xlink="http://www.w3.org/1999/xlink" xml:space="preserve" style="fill-rule:evenodd;clip-rule:evenodd;stroke-linejoin:round;stroke-miterlimit:1.41421;">
    <g transform="matrix(1.33333,0,0,-1.33333,0,494.667)">
        <g id="path20" transform="matrix(1,0,0,1,-2.012,239.767)">
            <path d="M22.954,110.288L8.99,110.288L8.99,124.255L22.954,124.255L22.954,110.288ZM22.954,131.233L8.991,131.233C5.136,131.233 2.012,128.108 2.012,124.254L2.012,110.288C2.012,106.436 5.136,103.311 8.991,103.311L22.954,103.311C26.808,103.311 29.932,106.436 29.932,110.288L29.932,124.254C29.932,128.108 26.808,131.233 22.954,131.233" style="fill:rgb(33,76,161);fill-rule:nonzero;"/>
        </g>
    </g>
    <g transform="matrix(1.33333,0,0,-1.33333,0,494.667)">
        <g id="path24" transform="matrix(1,0,0,1,13.9136,362.814)">
            <path d="M0,0C-3.164,0 -5.727,-2.566 -5.727,-5.729C-5.727,-8.893 -3.164,-11.455 0,-11.455C3.163,-11.455 5.727,-8.893 5.727,-5.729C5.727,-2.566 3.163,0 0,0" style="fill:rgb(33,76,161);fill-rule:nonzero;"/>
        </g>
    </g>
    <g transform="matrix(1.33333,0,0,-1.33333,0,494.667)">
        <g id="path28" transform="matrix(1,0,0,1,47.4526,370.971)">
            <path d="M0,0L13.598,-19.768L13.598,-4.559L13.559,-0.941L9.472,-0.941L9.472,0L18.236,0L18.236,-0.941L14.855,-0.941L14.816,-4.559L14.816,-28.1L14.188,-28.297L-4.048,-1.768L-4.048,-23.07L-4.009,-26.803L0.195,-26.803L0.195,-27.746L-8.882,-27.746L-8.882,-26.803L-5.267,-26.803L-5.228,-23.07L-5.228,-4.559L-5.267,-0.941L-8.882,-0.941L-8.882,0L0,0Z" style="fill:rgb(35,31,32);fill-rule:nonzero;"/>
        </g>
    </g>
    <g transform="matrix(1.33333,0,0,-1.33333,0,494.667)">
        <g id="path32" transform="matrix(1,0,0,1,92.8067,370.971)">
            <path d="M0,0L0,-8.881L-1.179,-8.881C-1.298,-7.506 -1.456,-5.777 -2.673,-3.732C-4.088,-1.336 -6.014,-1.217 -7.9,-1.139L-10.102,-1.139L-10.14,-4.676L-10.14,-22.793L-10.102,-26.803L-5.856,-26.803L-5.856,-27.746L-18.746,-27.746L-18.746,-26.803L-14.503,-26.803L-14.463,-22.793L-14.463,-4.676L-14.503,-1.139L-16.311,-1.139C-18.59,-1.178 -20.319,-1.178 -21.97,-3.811C-23.267,-5.895 -23.384,-7.545 -23.463,-8.881L-24.603,-8.881L-24.603,0L0,0Z" style="fill:rgb(35,31,32);fill-rule:nonzero;"/>
        </g>
    </g>
    <g transform="matrix(1.33333,0,0,-1.33333,0,494.667)">
        <g id="path36" transform="matrix(1,0,0,1,103.968,370.971)">
            <path d="M0,0L13.598,-19.768L13.598,-4.559L13.56,-0.941L9.472,-0.941L9.472,0L18.235,0L18.235,-0.941L14.855,-0.941L14.815,-4.559L14.815,-28.1L14.187,-28.297L-4.049,-1.768L-4.049,-23.07L-4.009,-26.803L0.197,-26.803L0.197,-27.746L-8.883,-27.746L-8.883,-26.803L-5.266,-26.803L-5.229,-23.07L-5.229,-4.559L-5.266,-0.941L-8.883,-0.941L-8.883,0L0,0Z" style="fill:rgb(35,31,32);fill-rule:nonzero;"/>
        </g>
    </g>
    <g transform="matrix(1.33333,0,0,-1.33333,0,494.667)">
        <g id="path40" transform="matrix(1,0,0,1,137.463,370.971)">
            <path d="M0,0L0,-0.941L-3.893,-0.941L-3.93,-4.283L-3.93,-19.297C-3.893,-23.187 -3.812,-26.881 3.498,-26.881C10.886,-26.881 11.357,-23.658 11.475,-20.16L11.475,-4.283L11.437,-0.941L7.469,-0.941L7.469,0L16.151,0L16.151,-0.941L12.734,-0.941L12.695,-4.283L12.695,-18.59C12.654,-23.738 12.615,-28.139 2.437,-28.139C0.984,-28.139 -2.477,-27.982 -4.676,-27.078C-8.174,-25.584 -8.252,-22.52 -8.292,-18.746L-8.292,-4.283L-8.332,-0.941L-11.712,-0.941L-11.712,0L0,0Z" style="fill:rgb(35,31,32);fill-rule:nonzero;"/>
        </g>
    </g>
    <g transform="matrix(1.33333,0,0,-1.33333,0,494.667)">
        <g id="path44" transform="matrix(1,0,0,1,40.4209,323.437)">
            <path d="M0,0L-2.256,0L-2.256,0.6L4.992,0.6L4.992,0L2.736,0L2.736,-15.96L4.992,-15.96L4.992,-16.56L-2.256,-16.56L-2.256,-15.96L0,-15.96L0,0Z" style="fill:rgb(35,31,32);fill-rule:nonzero;"/>
        </g>
    </g>
    <g transform="matrix(1.33333,0,0,-1.33333,0,494.667)">
        <g id="path48" transform="matrix(1,0,0,1,48.7012,307.477)">
            <path d="M0,0L0,10.56L-2.064,10.56L-2.064,11.16L2.448,11.16L2.448,8.904L2.496,8.904C2.864,9.72 3.399,10.348 4.104,10.788C4.808,11.228 5.656,11.448 6.648,11.448C7.832,11.448 8.716,11.184 9.3,10.656C9.884,10.128 10.176,9.264 10.176,8.064L10.176,0L12.072,0L12.072,-0.6L5.832,-0.6L5.832,0L7.728,0L7.728,7.944C7.728,8.28 7.708,8.604 7.668,8.916C7.628,9.228 7.54,9.508 7.404,9.756C7.268,10.004 7.072,10.204 6.816,10.356C6.56,10.508 6.224,10.584 5.808,10.584C5.248,10.584 4.76,10.464 4.344,10.224C3.928,9.984 3.58,9.66 3.3,9.252C3.02,8.844 2.808,8.38 2.664,7.86C2.52,7.34 2.448,6.8 2.448,6.24L2.448,0L4.344,0L4.344,-0.6L-2.064,-0.6L-2.064,0L0,0Z" style="fill:rgb(35,31,32);fill-rule:nonzero;"/>
        </g>
    </g>
    <g transform="matrix(1.33333,0,0,-1.33333,0,494.667)">
        <g id="path52" transform="matrix(1,0,0,1,70.4209,315.061)">
            <path d="M0,0L-0.576,0C-0.656,0.4 -0.756,0.788 -0.876,1.164C-0.996,1.54 -1.172,1.872 -1.404,2.16C-1.636,2.448 -1.928,2.68 -2.28,2.856C-2.632,3.032 -3.072,3.12 -3.6,3.12C-4.144,3.12 -4.612,2.988 -5.004,2.724C-5.396,2.46 -5.592,2.04 -5.592,1.464C-5.592,0.968 -5.428,0.584 -5.1,0.312C-4.772,0.04 -4.368,-0.196 -3.888,-0.396C-3.408,-0.596 -2.88,-0.784 -2.304,-0.96C-1.728,-1.136 -1.2,-1.372 -0.72,-1.668C-0.24,-1.964 0.164,-2.36 0.492,-2.856C0.82,-3.352 0.984,-4.008 0.984,-4.824C0.984,-5.432 0.848,-5.964 0.576,-6.42C0.304,-6.876 -0.048,-7.256 -0.48,-7.56C-0.912,-7.864 -1.4,-8.092 -1.944,-8.244C-2.488,-8.396 -3.024,-8.472 -3.552,-8.472C-4.272,-8.472 -4.968,-8.408 -5.64,-8.28C-6.312,-8.152 -6.984,-7.968 -7.656,-7.728L-7.656,-3.816L-6.936,-3.816C-6.936,-4.376 -6.864,-4.9 -6.72,-5.388C-6.576,-5.876 -6.364,-6.304 -6.084,-6.672C-5.804,-7.041 -5.452,-7.332 -5.028,-7.548C-4.604,-7.764 -4.096,-7.872 -3.504,-7.872C-3.2,-7.872 -2.892,-7.828 -2.58,-7.74C-2.268,-7.652 -1.988,-7.521 -1.74,-7.344C-1.492,-7.168 -1.288,-6.948 -1.128,-6.684C-0.968,-6.42 -0.888,-6.112 -0.888,-5.76C-0.888,-5.232 -1.048,-4.816 -1.368,-4.512C-1.688,-4.208 -2.084,-3.944 -2.556,-3.72C-3.028,-3.496 -3.544,-3.292 -4.104,-3.108C-4.665,-2.924 -5.18,-2.696 -5.652,-2.424C-6.124,-2.152 -6.521,-1.804 -6.84,-1.38C-7.16,-0.957 -7.32,-0.4 -7.32,0.288C-7.32,0.864 -7.216,1.376 -7.008,1.824C-6.8,2.271 -6.521,2.648 -6.168,2.952C-5.816,3.256 -5.408,3.484 -4.944,3.636C-4.48,3.788 -3.992,3.864 -3.48,3.864C-2.84,3.864 -2.24,3.784 -1.68,3.624C-1.12,3.464 -0.561,3.296 0,3.12L0,0Z" style="fill:rgb(35,31,32);fill-rule:nonzero;"/>
        </g>
    </g>
    <g transform="matrix(1.33333,0,0,-1.33333,0,494.667)">
        <g id="path56" transform="matrix(1,0,0,1,72.9165,318.637)">
            <path d="M0,0L1.656,0L1.656,3.192L4.104,3.192L4.104,0L6.768,0L6.768,-0.6L4.104,-0.6L4.104,-9.096C4.104,-9.816 4.192,-10.344 4.368,-10.68C4.544,-11.016 4.88,-11.184 5.376,-11.184C5.84,-11.184 6.188,-11.04 6.42,-10.752C6.652,-10.464 6.864,-10.128 7.056,-9.744L7.608,-9.984L7.392,-10.416C7.152,-10.848 6.804,-11.228 6.348,-11.556C5.892,-11.883 5.232,-12.048 4.368,-12.048C3.744,-12.048 3.252,-11.967 2.892,-11.808C2.532,-11.648 2.26,-11.428 2.076,-11.148C1.892,-10.868 1.776,-10.552 1.728,-10.2C1.68,-9.848 1.656,-9.48 1.656,-9.096L1.656,-0.6L0,-0.6L0,0Z" style="fill:rgb(35,31,32);fill-rule:nonzero;"/>
        </g>
    </g>
    <g transform="matrix(1.33333,0,0,-1.33333,0,494.667)">
        <g id="path60" transform="matrix(1,0,0,1,82.8047,322.381)">
            <path d="M0,0C0,0.4 0.144,0.74 0.432,1.02C0.72,1.3 1.056,1.44 1.44,1.44C1.824,1.44 2.16,1.3 2.448,1.02C2.736,0.74 2.88,0.4 2.88,0C2.88,-0.384 2.736,-0.72 2.448,-1.008C2.16,-1.296 1.824,-1.44 1.44,-1.44C1.056,-1.44 0.72,-1.296 0.432,-1.008C0.144,-0.72 0,-0.384 0,0M0.216,-4.344L-1.848,-4.344L-1.848,-3.744L2.664,-3.744L2.664,-14.904L4.728,-14.904L4.728,-15.504L-1.848,-15.504L-1.848,-14.904L0.216,-14.904L0.216,-4.344Z" style="fill:rgb(35,31,32);fill-rule:nonzero;"/>
        </g>
    </g>
    <g transform="matrix(1.33333,0,0,-1.33333,0,494.667)">
        <g id="path64" transform="matrix(1,0,0,1,88.4922,318.637)">
            <path d="M0,0L1.656,0L1.656,3.192L4.104,3.192L4.104,0L6.768,0L6.768,-0.6L4.104,-0.6L4.104,-9.096C4.104,-9.816 4.192,-10.344 4.368,-10.68C4.544,-11.016 4.88,-11.184 5.376,-11.184C5.84,-11.184 6.188,-11.04 6.42,-10.752C6.652,-10.464 6.864,-10.128 7.056,-9.744L7.608,-9.984L7.392,-10.416C7.152,-10.848 6.804,-11.228 6.348,-11.556C5.892,-11.883 5.232,-12.048 4.368,-12.048C3.744,-12.048 3.252,-11.967 2.892,-11.808C2.532,-11.648 2.26,-11.428 2.076,-11.148C1.892,-10.868 1.776,-10.552 1.728,-10.2C1.68,-9.848 1.656,-9.48 1.656,-9.096L1.656,-0.6L0,-0.6L0,0Z" style="fill:rgb(35,31,32);fill-rule:nonzero;"/>
        </g>
    </g>
    <g transform="matrix(1.33333,0,0,-1.33333,0,494.667)">
        <g id="path68" transform="matrix(1,0,0,1,106.228,309.133)">
            <path d="M0,0L-0.048,0C-0.416,-0.816 -0.952,-1.444 -1.656,-1.884C-2.36,-2.324 -3.208,-2.544 -4.2,-2.544C-5.384,-2.544 -6.268,-2.28 -6.852,-1.752C-7.436,-1.224 -7.728,-0.36 -7.728,0.84L-7.728,8.904L-9.624,8.904L-9.624,9.504L-5.28,9.504L-5.28,0.96C-5.28,0.624 -5.26,0.3 -5.22,-0.012C-5.18,-0.324 -5.092,-0.604 -4.956,-0.852C-4.82,-1.1 -4.624,-1.3 -4.368,-1.452C-4.112,-1.604 -3.776,-1.68 -3.36,-1.68C-2.8,-1.68 -2.312,-1.56 -1.896,-1.32C-1.48,-1.08 -1.132,-0.756 -0.852,-0.348C-0.572,0.06 -0.36,0.524 -0.216,1.044C-0.072,1.564 0,2.104 0,2.664L0,8.904L-2.184,8.904L-2.184,9.504L2.448,9.504L2.448,-1.656L4.512,-1.656L4.512,-2.256L0,-2.256L0,0Z" style="fill:rgb(35,31,32);fill-rule:nonzero;"/>
        </g>
    </g>
    <g transform="matrix(1.33333,0,0,-1.33333,0,494.667)">
        <g id="path72" transform="matrix(1,0,0,1,111.604,318.637)">
            <path d="M0,0L1.656,0L1.656,3.192L4.104,3.192L4.104,0L6.768,0L6.768,-0.6L4.104,-0.6L4.104,-9.096C4.104,-9.816 4.192,-10.344 4.368,-10.68C4.544,-11.016 4.88,-11.184 5.376,-11.184C5.84,-11.184 6.188,-11.04 6.42,-10.752C6.652,-10.464 6.864,-10.128 7.056,-9.744L7.608,-9.984L7.392,-10.416C7.152,-10.848 6.804,-11.228 6.348,-11.556C5.892,-11.883 5.232,-12.048 4.368,-12.048C3.744,-12.048 3.252,-11.967 2.892,-11.808C2.532,-11.648 2.26,-11.428 2.076,-11.148C1.892,-10.868 1.776,-10.552 1.728,-10.2C1.68,-9.848 1.656,-9.48 1.656,-9.096L1.656,-0.6L0,-0.6L0,0Z" style="fill:rgb(35,31,32);fill-rule:nonzero;"/>
        </g>
    </g>
    <g transform="matrix(1.33333,0,0,-1.33333,0,494.667)">
        <g id="path76" transform="matrix(1,0,0,1,119.596,318.637)">
            <path d="M0,0L1.656,0L1.656,3.192L4.104,3.192L4.104,0L6.768,0L6.768,-0.6L4.104,-0.6L4.104,-9.096C4.104,-9.816 4.192,-10.344 4.368,-10.68C4.544,-11.016 4.88,-11.184 5.376,-11.184C5.84,-11.184 6.188,-11.04 6.42,-10.752C6.652,-10.464 6.864,-10.128 7.056,-9.744L7.608,-9.984L7.392,-10.416C7.152,-10.848 6.804,-11.228 6.348,-11.556C5.892,-11.883 5.232,-12.048 4.368,-12.048C3.744,-12.048 3.252,-11.967 2.892,-11.808C2.532,-11.648 2.26,-11.428 2.076,-11.148C1.892,-10.868 1.776,-10.552 1.728,-10.2C1.68,-9.848 1.656,-9.48 1.656,-9.096L1.656,-0.6L0,-0.6L0,0Z" style="fill:rgb(35,31,32);fill-rule:nonzero;"/>
        </g>
    </g>
    <g transform="matrix(1.33333,0,0,-1.33333,0,494.667)">
        <g id="path80" transform="matrix(1,0,0,1,134.26,318.038)">
            <path d="M0,0L0,0.6L2.016,0.6L2.016,3C2.016,3.656 2.127,4.196 2.352,4.62C2.576,5.043 2.868,5.379 3.228,5.628C3.588,5.875 3.996,6.048 4.452,6.144C4.908,6.24 5.36,6.288 5.808,6.288C6.16,6.288 6.548,6.255 6.972,6.192C7.396,6.128 7.784,6.008 8.136,5.832C8.488,5.656 8.784,5.416 9.024,5.112C9.264,4.808 9.384,4.424 9.384,3.96C9.384,3.64 9.292,3.392 9.108,3.216C8.924,3.04 8.672,2.952 8.352,2.952C7.6,2.952 7.224,3.328 7.224,4.08C7.224,4.592 7.128,4.988 6.936,5.268C6.744,5.547 6.416,5.688 5.952,5.688C5.631,5.688 5.372,5.632 5.172,5.52C4.972,5.408 4.82,5.244 4.716,5.028C4.611,4.812 4.544,4.556 4.512,4.26C4.479,3.963 4.464,3.64 4.464,3.288L4.464,0.6L6.768,0.6L6.768,0L4.464,0L4.464,-10.56L6.408,-10.56L6.408,-11.16L0,-11.16L0,-10.56L2.016,-10.56L2.016,0L0,0Z" style="fill:rgb(35,31,32);fill-rule:nonzero;"/>
        </g>
    </g>
    <g transform="matrix(1.33333,0,0,-1.33333,0,494.667)">
        <g id="path84" transform="matrix(1,0,0,1,145.828,312.757)">
            <path d="M0,0C0,-0.624 0.016,-1.268 0.048,-1.932C0.08,-2.596 0.184,-3.196 0.36,-3.732C0.536,-4.268 0.819,-4.708 1.212,-5.052C1.604,-5.396 2.151,-5.568 2.856,-5.568C3.56,-5.568 4.104,-5.396 4.488,-5.052C4.872,-4.708 5.156,-4.268 5.34,-3.732C5.523,-3.196 5.631,-2.596 5.664,-1.932C5.696,-1.268 5.712,-0.624 5.712,0C5.712,0.624 5.696,1.268 5.664,1.932C5.631,2.596 5.523,3.196 5.34,3.732C5.156,4.268 4.872,4.708 4.488,5.052C4.104,5.396 3.56,5.568 2.856,5.568C2.151,5.568 1.604,5.396 1.212,5.052C0.819,4.708 0.536,4.268 0.36,3.732C0.184,3.196 0.08,2.596 0.048,1.932C0.016,1.268 0,0.624 0,0M-2.736,0C-2.736,0.608 -2.645,1.272 -2.46,1.992C-2.276,2.712 -1.968,3.38 -1.536,3.996C-1.104,4.612 -0.532,5.128 0.18,5.544C0.892,5.96 1.784,6.168 2.856,6.168C3.928,6.168 4.82,5.96 5.532,5.544C6.244,5.128 6.816,4.612 7.248,3.996C7.68,3.38 7.988,2.712 8.172,1.992C8.355,1.272 8.448,0.608 8.448,0C8.448,-0.608 8.355,-1.272 8.172,-1.992C7.988,-2.712 7.68,-3.38 7.248,-3.996C6.816,-4.612 6.244,-5.128 5.532,-5.544C4.82,-5.96 3.928,-6.168 2.856,-6.168C1.784,-6.168 0.892,-5.96 0.18,-5.544C-0.532,-5.128 -1.104,-4.612 -1.536,-3.996C-1.968,-3.38 -2.276,-2.712 -2.46,-1.992C-2.645,-1.272 -2.736,-0.608 -2.736,0" style="fill:rgb(35,31,32);fill-rule:nonzero;"/>
        </g>
    </g>
    <g transform="matrix(1.33333,0,0,-1.33333,0,494.667)">
        <g id="path88" transform="matrix(1,0,0,1,158.043,318.038)">
            <path d="M0,0L-2.064,0L-2.064,0.6L2.448,0.6L2.448,-2.16L2.496,-2.16C2.624,-1.809 2.784,-1.452 2.976,-1.092C3.168,-0.732 3.404,-0.404 3.684,-0.108C3.964,0.187 4.28,0.428 4.632,0.612C4.984,0.795 5.392,0.888 5.856,0.888C6.576,0.888 7.12,0.68 7.488,0.264C7.856,-0.152 8.04,-0.712 8.04,-1.416C8.04,-1.896 7.94,-2.284 7.74,-2.58C7.54,-2.876 7.224,-3.024 6.792,-3.024C6.472,-3.024 6.192,-2.913 5.952,-2.688C5.712,-2.464 5.592,-2.168 5.592,-1.8C5.592,-1.625 5.612,-1.416 5.652,-1.176C5.692,-0.936 5.712,-0.736 5.712,-0.576C5.712,-0.4 5.656,-0.256 5.544,-0.144C5.432,-0.032 5.288,0.024 5.112,0.024C4.792,0.024 4.476,-0.132 4.164,-0.444C3.852,-0.756 3.568,-1.164 3.312,-1.668C3.056,-2.172 2.848,-2.745 2.688,-3.384C2.528,-4.024 2.448,-4.665 2.448,-5.304L2.448,-10.56L4.44,-10.56L4.44,-11.16L-2.064,-11.16L-2.064,-10.56L0,-10.56L0,0Z" style="fill:rgb(35,31,32);fill-rule:nonzero;"/>
        </g>
    </g>
    <g transform="matrix(1.33333,0,0,-1.33333,0,494.667)">
        <g id="path92" transform="matrix(1,0,0,1,182.331,313.885)">
            <path d="M0,0C0,0.88 -0.096,1.6 -0.288,2.16C-0.48,2.72 -0.72,3.16 -1.008,3.48C-1.296,3.8 -1.604,4.016 -1.932,4.128C-2.26,4.24 -2.561,4.296 -2.832,4.296C-3.393,4.296 -3.849,4.156 -4.2,3.876C-4.552,3.596 -4.828,3.216 -5.028,2.736C-5.229,2.256 -5.364,1.684 -5.436,1.02C-5.508,0.356 -5.544,-0.36 -5.544,-1.128C-5.544,-2.856 -5.336,-4.192 -4.92,-5.136C-4.504,-6.08 -3.809,-6.552 -2.832,-6.552C-2.225,-6.552 -1.736,-6.412 -1.368,-6.132C-1,-5.852 -0.712,-5.488 -0.504,-5.04C-0.296,-4.592 -0.16,-4.1 -0.096,-3.564C-0.033,-3.028 0,-2.496 0,-1.968L0,0ZM-0.072,-5.304L-0.12,-5.304C-0.393,-5.928 -0.825,-6.416 -1.416,-6.768C-2.008,-7.12 -2.68,-7.296 -3.432,-7.296C-4.264,-7.296 -4.977,-7.128 -5.568,-6.792C-6.16,-6.456 -6.648,-6.004 -7.032,-5.436C-7.416,-4.868 -7.696,-4.212 -7.872,-3.468C-8.048,-2.724 -8.136,-1.944 -8.136,-1.128C-8.136,-0.024 -8.021,0.92 -7.788,1.704C-7.557,2.488 -7.236,3.124 -6.828,3.612C-6.42,4.1 -5.94,4.46 -5.388,4.692C-4.836,4.924 -4.24,5.04 -3.6,5.04C-2.8,5.04 -2.112,4.892 -1.536,4.596C-0.96,4.3 -0.488,3.768 -0.12,3L-0.072,3L-0.072,9.552L-2.472,9.552L-2.472,10.152L2.376,10.152L2.376,-6.408L4.344,-6.408L4.344,-7.008L-0.072,-7.008L-0.072,-5.304Z" style="fill:rgb(35,31,32);fill-rule:nonzero;"/>
        </g>
    </g>
    <g transform="matrix(1.33333,0,0,-1.33333,0,494.667)">
        <g id="path96" transform="matrix(1,0,0,1,193.059,313.165)">
            <path d="M0,0C-0.368,-0.112 -0.672,-0.236 -0.912,-0.372C-1.152,-0.508 -1.344,-0.688 -1.488,-0.912C-1.632,-1.136 -1.736,-1.42 -1.8,-1.764C-1.864,-2.108 -1.896,-2.544 -1.896,-3.072C-1.896,-3.44 -1.876,-3.792 -1.836,-4.128C-1.796,-4.464 -1.72,-4.756 -1.608,-5.004C-1.497,-5.252 -1.336,-5.452 -1.128,-5.604C-0.92,-5.756 -0.656,-5.832 -0.336,-5.832C0.192,-5.832 0.636,-5.688 0.996,-5.4C1.356,-5.112 1.647,-4.752 1.872,-4.32C2.096,-3.888 2.256,-3.424 2.352,-2.928C2.448,-2.432 2.496,-1.977 2.496,-1.56L2.496,0.744L0,0ZM-0.144,0.648C0.352,0.776 0.8,0.896 1.2,1.008C1.6,1.12 2.032,1.256 2.496,1.416L2.496,2.424C2.496,2.84 2.472,3.216 2.424,3.552C2.376,3.888 2.284,4.176 2.148,4.416C2.012,4.656 1.824,4.84 1.584,4.968C1.344,5.096 1.023,5.16 0.624,5.16C0.016,5.16 -0.472,5.032 -0.84,4.776C-1.208,4.52 -1.392,4 -1.392,3.216C-1.392,2.751 -1.488,2.428 -1.68,2.244C-1.872,2.06 -2.176,1.968 -2.592,1.968C-2.912,1.968 -3.176,2.024 -3.384,2.136C-3.592,2.248 -3.696,2.488 -3.696,2.856C-3.696,3.432 -3.564,3.908 -3.3,4.284C-3.036,4.66 -2.7,4.956 -2.292,5.172C-1.884,5.388 -1.428,5.54 -0.924,5.628C-0.42,5.716 0.072,5.76 0.552,5.76C1.464,5.76 2.208,5.672 2.784,5.496C3.36,5.32 3.808,5.076 4.128,4.764C4.448,4.452 4.664,4.08 4.776,3.648C4.888,3.216 4.944,2.751 4.944,2.256L4.944,-3.84C4.944,-4.304 4.98,-4.66 5.052,-4.908C5.124,-5.156 5.236,-5.336 5.388,-5.448C5.54,-5.56 5.736,-5.628 5.976,-5.652C6.216,-5.676 6.504,-5.688 6.84,-5.688L6.84,-6.288L5.016,-6.288C4.68,-6.288 4.372,-6.276 4.092,-6.252C3.812,-6.228 3.556,-6.16 3.324,-6.048C3.092,-5.937 2.896,-5.78 2.736,-5.58C2.576,-5.38 2.448,-5.096 2.352,-4.728C1.888,-5.448 1.356,-5.937 0.756,-6.192C0.156,-6.448 -0.544,-6.576 -1.344,-6.576C-2.592,-6.576 -3.452,-6.272 -3.924,-5.664C-4.396,-5.056 -4.632,-4.2 -4.632,-3.096C-4.632,-2.088 -4.376,-1.328 -3.864,-0.816C-3.352,-0.304 -2.592,0.072 -1.584,0.312L-0.144,0.648Z" style="fill:rgb(35,31,32);fill-rule:nonzero;"/>
        </g>
    </g>
    <g transform="matrix(1.33333,0,0,-1.33333,0,494.667)">
        <g id="path100" transform="matrix(1,0,0,1,200.931,318.637)">
            <path d="M0,0L1.656,0L1.656,3.192L4.104,3.192L4.104,0L6.768,0L6.768,-0.6L4.104,-0.6L4.104,-9.096C4.104,-9.816 4.191,-10.344 4.368,-10.68C4.544,-11.016 4.88,-11.184 5.376,-11.184C5.84,-11.184 6.187,-11.04 6.42,-10.752C6.651,-10.464 6.864,-10.128 7.056,-9.744L7.608,-9.984L7.392,-10.416C7.152,-10.848 6.804,-11.228 6.348,-11.556C5.892,-11.883 5.232,-12.048 4.368,-12.048C3.744,-12.048 3.252,-11.967 2.892,-11.808C2.532,-11.648 2.26,-11.428 2.076,-11.148C1.892,-10.868 1.776,-10.552 1.728,-10.2C1.68,-9.848 1.656,-9.48 1.656,-9.096L1.656,-0.6L0,-0.6L0,0Z" style="fill:rgb(35,31,32);fill-rule:nonzero;"/>
        </g>
    </g>
    <g transform="matrix(1.33333,0,0,-1.33333,0,494.667)">
        <g id="path104" transform="matrix(1,0,0,1,214.394,313.165)">
            <path d="M0,0C-0.369,-0.112 -0.672,-0.236 -0.912,-0.372C-1.152,-0.508 -1.344,-0.688 -1.488,-0.912C-1.632,-1.136 -1.736,-1.42 -1.8,-1.764C-1.864,-2.108 -1.896,-2.544 -1.896,-3.072C-1.896,-3.44 -1.876,-3.792 -1.836,-4.128C-1.796,-4.464 -1.72,-4.756 -1.608,-5.004C-1.497,-5.252 -1.336,-5.452 -1.128,-5.604C-0.92,-5.756 -0.656,-5.832 -0.336,-5.832C0.192,-5.832 0.636,-5.688 0.996,-5.4C1.356,-5.112 1.647,-4.752 1.872,-4.32C2.096,-3.888 2.256,-3.424 2.352,-2.928C2.448,-2.432 2.496,-1.977 2.496,-1.56L2.496,0.744L0,0ZM-0.144,0.648C0.352,0.776 0.8,0.896 1.2,1.008C1.6,1.12 2.032,1.256 2.496,1.416L2.496,2.424C2.496,2.84 2.472,3.216 2.424,3.552C2.376,3.888 2.284,4.176 2.148,4.416C2.012,4.656 1.824,4.84 1.584,4.968C1.344,5.096 1.023,5.16 0.624,5.16C0.016,5.16 -0.472,5.032 -0.84,4.776C-1.208,4.52 -1.392,4 -1.392,3.216C-1.392,2.751 -1.488,2.428 -1.68,2.244C-1.872,2.06 -2.176,1.968 -2.592,1.968C-2.913,1.968 -3.176,2.024 -3.384,2.136C-3.592,2.248 -3.696,2.488 -3.696,2.856C-3.696,3.432 -3.564,3.908 -3.3,4.284C-3.036,4.66 -2.7,4.956 -2.292,5.172C-1.884,5.388 -1.428,5.54 -0.924,5.628C-0.42,5.716 0.072,5.76 0.552,5.76C1.464,5.76 2.208,5.672 2.784,5.496C3.36,5.32 3.808,5.076 4.128,4.764C4.448,4.452 4.664,4.08 4.776,3.648C4.888,3.216 4.944,2.751 4.944,2.256L4.944,-3.84C4.944,-4.304 4.98,-4.66 5.052,-4.908C5.124,-5.156 5.235,-5.336 5.388,-5.448C5.54,-5.56 5.736,-5.628 5.976,-5.652C6.216,-5.676 6.504,-5.688 6.84,-5.688L6.84,-6.288L5.016,-6.288C4.68,-6.288 4.372,-6.276 4.092,-6.252C3.812,-6.228 3.556,-6.16 3.324,-6.048C3.092,-5.937 2.896,-5.78 2.736,-5.58C2.576,-5.38 2.448,-5.096 2.352,-4.728C1.888,-5.448 1.356,-5.937 0.756,-6.192C0.156,-6.448 -0.544,-6.576 -1.344,-6.576C-2.592,-6.576 -3.453,-6.272 -3.924,-5.664C-4.396,-5.056 -4.632,-4.2 -4.632,-3.096C-4.632,-2.088 -4.376,-1.328 -3.864,-0.816C-3.353,-0.304 -2.592,0.072 -1.584,0.312L-0.144,0.648Z" style="fill:rgb(35,31,32);fill-rule:nonzero;"/>
        </g>
    </g>
    <g transform="matrix(1.33333,0,0,-1.33333,0,494.667)">
        <g id="path108" transform="matrix(1,0,0,1,222.266,318.637)">
            <path d="M0,0L1.656,0L1.656,3.192L4.104,3.192L4.104,0L6.768,0L6.768,-0.6L4.104,-0.6L4.104,-9.096C4.104,-9.816 4.192,-10.344 4.368,-10.68C4.544,-11.016 4.88,-11.184 5.376,-11.184C5.84,-11.184 6.188,-11.04 6.42,-10.752C6.652,-10.464 6.864,-10.128 7.056,-9.744L7.608,-9.984L7.392,-10.416C7.152,-10.848 6.804,-11.228 6.348,-11.556C5.892,-11.883 5.232,-12.048 4.368,-12.048C3.744,-12.048 3.252,-11.967 2.892,-11.808C2.532,-11.648 2.26,-11.428 2.076,-11.148C1.892,-10.868 1.776,-10.552 1.728,-10.2C1.68,-9.848 1.656,-9.48 1.656,-9.096L1.656,-0.6L0,-0.6L0,0Z" style="fill:rgb(35,31,32);fill-rule:nonzero;"/>
        </g>
    </g>
    <g transform="matrix(1.33333,0,0,-1.33333,0,494.667)">
        <g id="path112" transform="matrix(1,0,0,1,238.97,314.246)">
            <path d="M0,0C0,0.432 -0.016,0.888 -0.048,1.368C-0.081,1.848 -0.18,2.288 -0.348,2.688C-0.516,3.087 -0.772,3.42 -1.116,3.684C-1.46,3.948 -1.936,4.08 -2.544,4.08C-3.056,4.08 -3.48,3.936 -3.816,3.648C-4.152,3.36 -4.416,3.008 -4.608,2.592C-4.8,2.176 -4.936,1.731 -5.016,1.26C-5.096,0.788 -5.136,0.368 -5.136,0L0,0ZM-5.136,-0.744L-5.136,-0.936C-5.136,-1.784 -5.096,-2.568 -5.016,-3.288C-4.936,-4.008 -4.772,-4.641 -4.524,-5.184C-4.276,-5.729 -3.916,-6.152 -3.444,-6.456C-2.972,-6.76 -2.352,-6.912 -1.584,-6.912C-1.041,-6.912 -0.561,-6.833 -0.144,-6.672C0.272,-6.512 0.636,-6.296 0.948,-6.024C1.26,-5.752 1.528,-5.428 1.752,-5.052C1.976,-4.676 2.168,-4.272 2.328,-3.84L2.856,-4.032C2.6,-4.736 2.304,-5.32 1.968,-5.784C1.632,-6.249 1.248,-6.616 0.816,-6.888C0.384,-7.161 -0.104,-7.356 -0.648,-7.476C-1.192,-7.596 -1.792,-7.656 -2.448,-7.656C-3.344,-7.656 -4.132,-7.492 -4.812,-7.164C-5.492,-6.836 -6.06,-6.393 -6.516,-5.832C-6.972,-5.272 -7.312,-4.62 -7.536,-3.876C-7.76,-3.132 -7.872,-2.336 -7.872,-1.488C-7.872,-0.672 -7.744,0.108 -7.488,0.852C-7.232,1.596 -6.864,2.252 -6.384,2.82C-5.904,3.388 -5.32,3.84 -4.632,4.176C-3.944,4.512 -3.16,4.68 -2.28,4.68C-1.512,4.68 -0.812,4.548 -0.18,4.284C0.452,4.02 0.996,3.648 1.452,3.168C1.908,2.688 2.26,2.116 2.508,1.452C2.756,0.788 2.88,0.056 2.88,-0.744L-5.136,-0.744Z" style="fill:rgb(35,31,32);fill-rule:nonzero;"/>
        </g>
    </g>
    <g transform="matrix(1.33333,0,0,-1.33333,0,494.667)">
        <g id="path116" transform="matrix(1,0,0,1,245.618,323.437)">
            <path d="M0,0L-1.872,0L-1.872,0.6L2.448,0.6L2.448,-10.2L3.912,-10.2L6.696,-5.4L4.392,-5.4L4.392,-4.8L9.456,-4.8L9.456,-5.4L7.584,-5.4L5.328,-9.144L10.392,-15.96L11.4,-15.96L11.4,-16.56L5.472,-16.56L5.472,-15.96L7.344,-15.96L3.696,-10.8L2.448,-10.8L2.448,-15.96L4.368,-15.96L4.368,-16.56L-1.968,-16.56L-1.968,-15.96L0,-15.96L0,0Z" style="fill:rgb(35,31,32);fill-rule:nonzero;"/>
        </g>
    </g>
    <g transform="matrix(1.33333,0,0,-1.33333,0,494.667)">
        <g id="path120" transform="matrix(1,0,0,1,259.85,307.477)">
            <path d="M0,0L0,10.56L-2.064,10.56L-2.064,11.16L2.448,11.16L2.448,8.904L2.496,8.904C2.864,9.72 3.4,10.348 4.104,10.788C4.808,11.228 5.656,11.448 6.648,11.448C7.832,11.448 8.716,11.184 9.3,10.656C9.884,10.128 10.176,9.264 10.176,8.064L10.176,0L12.072,0L12.072,-0.6L5.832,-0.6L5.832,0L7.728,0L7.728,7.944C7.728,8.28 7.708,8.604 7.668,8.916C7.628,9.228 7.54,9.508 7.404,9.756C7.268,10.004 7.072,10.204 6.816,10.356C6.56,10.508 6.224,10.584 5.808,10.584C5.248,10.584 4.76,10.464 4.344,10.224C3.928,9.984 3.58,9.66 3.3,9.252C3.02,8.844 2.808,8.38 2.664,7.86C2.52,7.34 2.448,6.8 2.448,6.24L2.448,0L4.344,0L4.344,-0.6L-2.064,-0.6L-2.064,0L0,0Z" style="fill:rgb(35,31,32);fill-rule:nonzero;"/>
        </g>
    </g>
    <g transform="matrix(1.33333,0,0,-1.33333,0,494.667)">
        <g id="path124" transform="matrix(1,0,0,1,276.53,312.757)">
            <path d="M0,0C0,-0.624 0.016,-1.268 0.048,-1.932C0.08,-2.596 0.184,-3.196 0.36,-3.732C0.536,-4.268 0.819,-4.708 1.212,-5.052C1.604,-5.396 2.151,-5.568 2.856,-5.568C3.56,-5.568 4.104,-5.396 4.488,-5.052C4.872,-4.708 5.156,-4.268 5.34,-3.732C5.523,-3.196 5.631,-2.596 5.664,-1.932C5.696,-1.268 5.712,-0.624 5.712,0C5.712,0.624 5.696,1.268 5.664,1.932C5.631,2.596 5.523,3.196 5.34,3.732C5.156,4.268 4.872,4.708 4.488,5.052C4.104,5.396 3.56,5.568 2.856,5.568C2.151,5.568 1.604,5.396 1.212,5.052C0.819,4.708 0.536,4.268 0.36,3.732C0.184,3.196 0.08,2.596 0.048,1.932C0.016,1.268 0,0.624 0,0M-2.736,0C-2.736,0.608 -2.645,1.272 -2.46,1.992C-2.276,2.712 -1.968,3.38 -1.536,3.996C-1.104,4.612 -0.532,5.128 0.18,5.544C0.892,5.96 1.784,6.168 2.856,6.168C3.928,6.168 4.82,5.96 5.532,5.544C6.244,5.128 6.816,4.612 7.248,3.996C7.68,3.38 7.988,2.712 8.172,1.992C8.355,1.272 8.448,0.608 8.448,0C8.448,-0.608 8.355,-1.272 8.172,-1.992C7.988,-2.712 7.68,-3.38 7.248,-3.996C6.816,-4.612 6.244,-5.128 5.532,-5.544C4.82,-5.96 3.928,-6.168 2.856,-6.168C1.784,-6.168 0.892,-5.96 0.18,-5.544C-0.532,-5.128 -1.104,-4.612 -1.536,-3.996C-1.968,-3.38 -2.276,-2.712 -2.46,-1.992C-2.645,-1.272 -2.736,-0.608 -2.736,0" style="fill:rgb(35,31,32);fill-rule:nonzero;"/>
        </g>
    </g>
    <g transform="matrix(1.33333,0,0,-1.33333,0,494.667)">
        <g id="path128" transform="matrix(1,0,0,1,286.777,324.038)">
            <path d="M0,0L4.512,0L4.512,-16.56L6.576,-16.56L6.576,-17.16L0,-17.16L0,-16.56L2.064,-16.56L2.064,-0.6L0,-0.6L0,0Z" style="fill:rgb(35,31,32);fill-rule:nonzero;"/>
        </g>
    </g>
    <g transform="matrix(1.33333,0,0,-1.33333,0,494.667)">
        <g id="path132" transform="matrix(1,0,0,1,297.889,312.757)">
            <path d="M0,0C0,-0.624 0.016,-1.268 0.048,-1.932C0.08,-2.596 0.184,-3.196 0.36,-3.732C0.536,-4.268 0.82,-4.708 1.212,-5.052C1.604,-5.396 2.152,-5.568 2.856,-5.568C3.56,-5.568 4.104,-5.396 4.488,-5.052C4.872,-4.708 5.156,-4.268 5.34,-3.732C5.524,-3.196 5.632,-2.596 5.664,-1.932C5.696,-1.268 5.712,-0.624 5.712,0C5.712,0.624 5.696,1.268 5.664,1.932C5.632,2.596 5.524,3.196 5.34,3.732C5.156,4.268 4.872,4.708 4.488,5.052C4.104,5.396 3.56,5.568 2.856,5.568C2.152,5.568 1.604,5.396 1.212,5.052C0.82,4.708 0.536,4.268 0.36,3.732C0.184,3.196 0.08,2.596 0.048,1.932C0.016,1.268 0,0.624 0,0M-2.736,0C-2.736,0.608 -2.644,1.272 -2.46,1.992C-2.276,2.712 -1.968,3.38 -1.536,3.996C-1.104,4.612 -0.532,5.128 0.18,5.544C0.892,5.96 1.784,6.168 2.856,6.168C3.928,6.168 4.82,5.96 5.532,5.544C6.244,5.128 6.816,4.612 7.248,3.996C7.68,3.38 7.988,2.712 8.172,1.992C8.356,1.272 8.448,0.608 8.448,0C8.448,-0.608 8.356,-1.272 8.172,-1.992C7.988,-2.712 7.68,-3.38 7.248,-3.996C6.816,-4.612 6.244,-5.128 5.532,-5.544C4.82,-5.96 3.928,-6.168 2.856,-6.168C1.784,-6.168 0.892,-5.96 0.18,-5.544C-0.532,-5.128 -1.104,-4.612 -1.536,-3.996C-1.968,-3.38 -2.276,-2.712 -2.46,-1.992C-2.644,-1.272 -2.736,-0.608 -2.736,0" style="fill:rgb(35,31,32);fill-rule:nonzero;"/>
        </g>
    </g>
    <g transform="matrix(1.33333,0,0,-1.33333,0,494.667)">
        <g id="path136" transform="matrix(1,0,0,1,312.553,315.397)">
            <path d="M0,0C0,-0.32 0.012,-0.676 0.036,-1.068C0.06,-1.46 0.132,-1.828 0.252,-2.172C0.372,-2.516 0.552,-2.804 0.792,-3.036C1.032,-3.268 1.368,-3.384 1.8,-3.384C2.232,-3.384 2.568,-3.284 2.808,-3.084C3.048,-2.884 3.232,-2.632 3.36,-2.328C3.488,-2.024 3.568,-1.692 3.6,-1.332C3.632,-0.972 3.648,-0.632 3.648,-0.312C3.648,0.024 3.636,0.384 3.612,0.768C3.588,1.152 3.524,1.504 3.42,1.824C3.316,2.144 3.144,2.408 2.904,2.616C2.664,2.824 2.328,2.928 1.896,2.928C1.464,2.928 1.12,2.844 0.864,2.676C0.608,2.508 0.416,2.288 0.288,2.016C0.16,1.744 0.08,1.432 0.048,1.08C0.016,0.728 0,0.368 0,0M3.336,-8.16C2.488,-8.16 1.744,-8.18 1.104,-8.22C0.464,-8.26 -0.072,-8.36 -0.504,-8.52C-0.936,-8.68 -1.264,-8.92 -1.488,-9.24C-1.712,-9.56 -1.824,-10 -1.824,-10.56C-1.824,-11.04 -1.72,-11.44 -1.512,-11.76C-1.304,-12.08 -1.016,-12.336 -0.648,-12.528C-0.28,-12.72 0.16,-12.856 0.672,-12.936C1.184,-13.016 1.744,-13.056 2.352,-13.056C2.896,-13.056 3.444,-13 3.996,-12.888C4.548,-12.776 5.04,-12.608 5.472,-12.384C5.904,-12.16 6.256,-11.88 6.528,-11.544C6.8,-11.208 6.936,-10.808 6.936,-10.344C6.936,-9.864 6.86,-9.484 6.708,-9.204C6.556,-8.924 6.332,-8.704 6.036,-8.544C5.74,-8.384 5.364,-8.28 4.908,-8.232C4.452,-8.184 3.928,-8.16 3.336,-8.16M-1.224,-8.112C-1.96,-7.936 -2.544,-7.604 -2.976,-7.116C-3.408,-6.628 -3.624,-6.04 -3.624,-5.352C-3.624,-4.632 -3.412,-4.056 -2.988,-3.624C-2.564,-3.192 -2.056,-2.864 -1.464,-2.64C-1.784,-2.208 -2.004,-1.808 -2.124,-1.44C-2.244,-1.072 -2.304,-0.624 -2.304,-0.096C-2.304,0.464 -2.196,0.968 -1.98,1.416C-1.764,1.864 -1.472,2.244 -1.104,2.556C-0.736,2.868 -0.316,3.108 0.156,3.276C0.628,3.444 1.12,3.528 1.632,3.528C2.272,3.528 2.88,3.456 3.456,3.312C4.032,3.168 4.528,2.912 4.944,2.544C5.152,2.816 5.396,3.048 5.676,3.24C5.956,3.432 6.304,3.528 6.72,3.528C7.088,3.528 7.42,3.412 7.716,3.18C8.012,2.948 8.16,2.6 8.16,2.136C8.16,1.832 8.096,1.58 7.968,1.38C7.84,1.18 7.64,1.08 7.368,1.08C7.048,1.08 6.84,1.164 6.744,1.332C6.648,1.5 6.584,1.68 6.552,1.872C6.52,2.064 6.484,2.244 6.444,2.412C6.404,2.58 6.28,2.664 6.072,2.664C5.928,2.664 5.78,2.58 5.628,2.412C5.476,2.244 5.384,2.088 5.352,1.944C5.56,1.608 5.712,1.276 5.808,0.948C5.904,0.62 5.952,0.256 5.952,-0.144C5.952,-0.736 5.848,-1.268 5.64,-1.74C5.432,-2.212 5.144,-2.616 4.776,-2.952C4.408,-3.288 3.976,-3.544 3.48,-3.72C2.984,-3.896 2.448,-3.984 1.872,-3.984C0.864,-3.984 -0.064,-3.736 -0.912,-3.24C-1.088,-3.256 -1.276,-3.304 -1.476,-3.384C-1.676,-3.464 -1.86,-3.572 -2.028,-3.708C-2.196,-3.844 -2.336,-4 -2.448,-4.176C-2.56,-4.352 -2.616,-4.544 -2.616,-4.752C-2.616,-5.2 -2.436,-5.488 -2.076,-5.616C-1.716,-5.744 -1.2,-5.808 -0.528,-5.808C0.176,-5.808 0.868,-5.792 1.548,-5.76C2.228,-5.728 2.928,-5.712 3.648,-5.712C4.272,-5.712 4.84,-5.776 5.352,-5.904C5.864,-6.032 6.3,-6.244 6.66,-6.54C7.02,-6.836 7.3,-7.224 7.5,-7.704C7.7,-8.184 7.8,-8.776 7.8,-9.48C7.8,-10.312 7.632,-11.004 7.296,-11.556C6.96,-12.108 6.52,-12.552 5.976,-12.888C5.432,-13.224 4.816,-13.46 4.128,-13.596C3.44,-13.732 2.752,-13.8 2.064,-13.8C1.552,-13.8 0.972,-13.756 0.324,-13.668C-0.324,-13.58 -0.936,-13.416 -1.512,-13.176C-2.088,-12.936 -2.572,-12.596 -2.964,-12.156C-3.356,-11.716 -3.552,-11.144 -3.552,-10.44C-3.552,-10.088 -3.484,-9.78 -3.348,-9.516C-3.212,-9.252 -3.036,-9.028 -2.82,-8.844C-2.604,-8.66 -2.356,-8.508 -2.076,-8.388C-1.796,-8.268 -1.512,-8.184 -1.224,-8.136L-1.224,-8.112Z" style="fill:rgb(35,31,32);fill-rule:nonzero;"/>
        </g>
    </g>
    <g transform="matrix(1.33333,0,0,-1.33333,0,494.667)">
        <g id="path140" transform="matrix(1,0,0,1,323.761,322.381)">
            <path d="M0,0C0,0.4 0.144,0.74 0.432,1.02C0.72,1.3 1.056,1.44 1.44,1.44C1.824,1.44 2.16,1.3 2.448,1.02C2.736,0.74 2.88,0.4 2.88,0C2.88,-0.384 2.736,-0.72 2.448,-1.008C2.16,-1.296 1.824,-1.44 1.44,-1.44C1.056,-1.44 0.72,-1.296 0.432,-1.008C0.144,-0.72 0,-0.384 0,0M0.216,-4.344L-1.848,-4.344L-1.848,-3.744L2.664,-3.744L2.664,-14.904L4.728,-14.904L4.728,-15.504L-1.848,-15.504L-1.848,-14.904L0.216,-14.904L0.216,-4.344Z" style="fill:rgb(35,31,32);fill-rule:nonzero;"/>
        </g>
    </g>
    <g transform="matrix(1.33333,0,0,-1.33333,0,494.667)">
        <g id="path144" transform="matrix(1,0,0,1,41.3814,285.757)">
            <path d="M0,0C0,-0.624 0.016,-1.268 0.048,-1.932C0.08,-2.596 0.184,-3.196 0.36,-3.732C0.536,-4.268 0.819,-4.708 1.212,-5.052C1.604,-5.396 2.151,-5.568 2.856,-5.568C3.56,-5.568 4.104,-5.396 4.488,-5.052C4.872,-4.708 5.156,-4.268 5.34,-3.732C5.523,-3.196 5.631,-2.596 5.664,-1.932C5.696,-1.268 5.712,-0.624 5.712,0C5.712,0.624 5.696,1.268 5.664,1.932C5.631,2.596 5.523,3.196 5.34,3.732C5.156,4.268 4.872,4.708 4.488,5.052C4.104,5.396 3.56,5.568 2.856,5.568C2.151,5.568 1.604,5.396 1.212,5.052C0.819,4.708 0.536,4.268 0.36,3.732C0.184,3.196 0.08,2.596 0.048,1.932C0.016,1.268 0,0.624 0,0M-2.736,0C-2.736,0.608 -2.645,1.272 -2.46,1.992C-2.276,2.712 -1.968,3.38 -1.536,3.996C-1.104,4.612 -0.532,5.128 0.18,5.544C0.892,5.96 1.784,6.168 2.856,6.168C3.928,6.168 4.82,5.96 5.532,5.544C6.244,5.128 6.816,4.612 7.248,3.996C7.68,3.38 7.988,2.712 8.172,1.992C8.355,1.272 8.448,0.608 8.448,0C8.448,-0.608 8.355,-1.272 8.172,-1.992C7.988,-2.712 7.68,-3.38 7.248,-3.996C6.816,-4.612 6.244,-5.128 5.532,-5.544C4.82,-5.96 3.928,-6.168 2.856,-6.168C1.784,-6.168 0.892,-5.96 0.18,-5.544C-0.532,-5.128 -1.104,-4.612 -1.536,-3.996C-1.968,-3.38 -2.276,-2.712 -2.46,-1.992C-2.645,-1.272 -2.736,-0.608 -2.736,0" style="fill:rgb(35,31,32);fill-rule:nonzero;"/>
        </g>
    </g>
    <g transform="matrix(1.33333,0,0,-1.33333,0,494.667)">
        <g id="path148" transform="matrix(1,0,0,1,56.0449,288.397)">
            <path d="M0,0C0,-0.32 0.012,-0.676 0.036,-1.068C0.06,-1.46 0.132,-1.828 0.252,-2.172C0.372,-2.516 0.552,-2.804 0.792,-3.036C1.032,-3.268 1.368,-3.384 1.8,-3.384C2.232,-3.384 2.568,-3.284 2.808,-3.084C3.048,-2.884 3.232,-2.632 3.36,-2.328C3.488,-2.024 3.568,-1.692 3.6,-1.332C3.632,-0.972 3.648,-0.632 3.648,-0.312C3.648,0.024 3.636,0.384 3.612,0.768C3.588,1.152 3.524,1.504 3.42,1.824C3.316,2.144 3.144,2.408 2.904,2.616C2.664,2.824 2.328,2.928 1.896,2.928C1.464,2.928 1.12,2.844 0.864,2.676C0.608,2.508 0.416,2.288 0.288,2.016C0.16,1.744 0.08,1.432 0.048,1.08C0.016,0.728 0,0.368 0,0M3.336,-8.16C2.488,-8.16 1.744,-8.18 1.104,-8.22C0.464,-8.26 -0.072,-8.36 -0.504,-8.52C-0.936,-8.68 -1.264,-8.92 -1.488,-9.24C-1.712,-9.56 -1.824,-10 -1.824,-10.56C-1.824,-11.04 -1.72,-11.44 -1.512,-11.76C-1.304,-12.08 -1.016,-12.336 -0.648,-12.528C-0.28,-12.72 0.16,-12.856 0.672,-12.936C1.184,-13.016 1.744,-13.056 2.352,-13.056C2.896,-13.056 3.444,-13 3.996,-12.888C4.548,-12.776 5.04,-12.608 5.472,-12.384C5.904,-12.16 6.256,-11.88 6.528,-11.544C6.8,-11.208 6.936,-10.808 6.936,-10.344C6.936,-9.864 6.86,-9.484 6.708,-9.204C6.556,-8.924 6.332,-8.704 6.036,-8.544C5.74,-8.384 5.364,-8.28 4.908,-8.232C4.452,-8.184 3.928,-8.16 3.336,-8.16M-1.224,-8.112C-1.96,-7.936 -2.544,-7.604 -2.976,-7.116C-3.408,-6.628 -3.624,-6.04 -3.624,-5.352C-3.624,-4.632 -3.412,-4.056 -2.988,-3.624C-2.564,-3.192 -2.056,-2.864 -1.464,-2.64C-1.784,-2.208 -2.004,-1.808 -2.124,-1.44C-2.244,-1.072 -2.304,-0.624 -2.304,-0.096C-2.304,0.464 -2.196,0.968 -1.98,1.416C-1.764,1.864 -1.472,2.244 -1.104,2.556C-0.736,2.868 -0.316,3.108 0.156,3.276C0.628,3.444 1.12,3.528 1.632,3.528C2.271,3.528 2.88,3.456 3.456,3.312C4.032,3.168 4.528,2.912 4.944,2.544C5.152,2.816 5.396,3.048 5.676,3.24C5.956,3.432 6.304,3.528 6.72,3.528C7.088,3.528 7.42,3.412 7.716,3.18C8.012,2.948 8.16,2.6 8.16,2.136C8.16,1.832 8.096,1.58 7.968,1.38C7.84,1.18 7.64,1.08 7.368,1.08C7.048,1.08 6.84,1.164 6.744,1.332C6.648,1.5 6.584,1.68 6.552,1.872C6.52,2.064 6.484,2.244 6.444,2.412C6.404,2.58 6.28,2.664 6.072,2.664C5.928,2.664 5.78,2.58 5.628,2.412C5.476,2.244 5.384,2.088 5.352,1.944C5.56,1.608 5.712,1.276 5.808,0.948C5.904,0.62 5.952,0.256 5.952,-0.144C5.952,-0.736 5.848,-1.268 5.64,-1.74C5.432,-2.212 5.144,-2.616 4.776,-2.952C4.408,-3.288 3.976,-3.544 3.48,-3.72C2.984,-3.896 2.448,-3.984 1.872,-3.984C0.864,-3.984 -0.064,-3.736 -0.912,-3.24C-1.088,-3.256 -1.276,-3.304 -1.476,-3.384C-1.676,-3.464 -1.86,-3.572 -2.028,-3.708C-2.196,-3.844 -2.336,-4 -2.448,-4.176C-2.56,-4.352 -2.616,-4.544 -2.616,-4.752C-2.616,-5.2 -2.436,-5.488 -2.076,-5.616C-1.716,-5.744 -1.2,-5.808 -0.528,-5.808C0.176,-5.808 0.868,-5.792 1.548,-5.76C2.228,-5.728 2.928,-5.712 3.648,-5.712C4.272,-5.712 4.84,-5.776 5.352,-5.904C5.864,-6.032 6.3,-6.244 6.66,-6.54C7.02,-6.836 7.3,-7.224 7.5,-7.704C7.7,-8.184 7.8,-8.776 7.8,-9.48C7.8,-10.312 7.632,-11.004 7.296,-11.556C6.96,-12.108 6.52,-12.552 5.976,-12.888C5.432,-13.224 4.816,-13.46 4.128,-13.596C3.44,-13.732 2.751,-13.8 2.064,-13.8C1.552,-13.8 0.972,-13.756 0.324,-13.668C-0.324,-13.58 -0.936,-13.416 -1.512,-13.176C-2.088,-12.936 -2.572,-12.596 -2.964,-12.156C-3.356,-11.716 -3.552,-11.144 -3.552,-10.44C-3.552,-10.088 -3.484,-9.78 -3.348,-9.516C-3.212,-9.252 -3.036,-9.028 -2.82,-8.844C-2.604,-8.66 -2.356,-8.508 -2.076,-8.388C-1.796,-8.268 -1.512,-8.184 -1.224,-8.136L-1.224,-8.112Z" style="fill:rgb(35,31,32);fill-rule:nonzero;"/>
        </g>
    </g>
    <g transform="matrix(1.33333,0,0,-1.33333,0,494.667)">
        <g id="path152" transform="matrix(1,0,0,1,73.9248,295.381)">
            <path d="M0,0C0,0.4 0.144,0.74 0.432,1.02C0.72,1.3 1.056,1.44 1.44,1.44C1.824,1.44 2.16,1.3 2.448,1.02C2.736,0.74 2.88,0.4 2.88,0C2.88,-0.384 2.736,-0.72 2.448,-1.008C2.16,-1.296 1.824,-1.44 1.44,-1.44C1.056,-1.44 0.72,-1.296 0.432,-1.008C0.144,-0.72 0,-0.384 0,0M0.216,-4.344L-1.848,-4.344L-1.848,-3.744L2.664,-3.744L2.664,-14.904L4.728,-14.904L4.728,-15.504L-1.848,-15.504L-1.848,-14.904L0.216,-14.904L0.216,-4.344Z" style="fill:rgb(35,31,32);fill-rule:nonzero;"/>
        </g>
    </g>
    <g transform="matrix(1.33333,0,0,-1.33333,0,494.667)">
        <g id="path156" transform="matrix(1,0,0,1,81.6284,280.477)">
            <path d="M0,0L0,10.56L-2.064,10.56L-2.064,11.16L2.448,11.16L2.448,8.904L2.496,8.904C2.864,9.72 3.4,10.348 4.104,10.788C4.808,11.228 5.656,11.448 6.648,11.448C7.832,11.448 8.716,11.184 9.3,10.656C9.884,10.128 10.176,9.264 10.176,8.064L10.176,0L12.072,0L12.072,-0.6L5.832,-0.6L5.832,0L7.728,0L7.728,7.944C7.728,8.28 7.708,8.604 7.668,8.916C7.628,9.228 7.54,9.508 7.404,9.756C7.268,10.004 7.072,10.204 6.816,10.356C6.56,10.508 6.224,10.584 5.808,10.584C5.248,10.584 4.76,10.464 4.344,10.224C3.928,9.984 3.58,9.66 3.3,9.252C3.02,8.844 2.808,8.38 2.664,7.86C2.52,7.34 2.448,6.8 2.448,6.24L2.448,0L4.344,0L4.344,-0.6L-2.064,-0.6L-2.064,0L0,0Z" style="fill:rgb(35,31,32);fill-rule:nonzero;"/>
        </g>
    </g>
    <g transform="matrix(1.33333,0,0,-1.33333,0,494.667)">
        <g id="path160" transform="matrix(1,0,0,1,94.7324,291.038)">
            <path d="M0,0L0,0.6L2.016,0.6L2.016,3C2.016,3.656 2.127,4.196 2.352,4.62C2.576,5.043 2.868,5.379 3.228,5.628C3.588,5.875 3.996,6.048 4.452,6.144C4.908,6.24 5.36,6.288 5.808,6.288C6.16,6.288 6.548,6.255 6.972,6.192C7.396,6.128 7.784,6.008 8.136,5.832C8.488,5.656 8.784,5.416 9.024,5.112C9.264,4.808 9.384,4.424 9.384,3.96C9.384,3.64 9.292,3.392 9.108,3.216C8.924,3.04 8.672,2.952 8.352,2.952C7.6,2.952 7.224,3.328 7.224,4.08C7.224,4.592 7.128,4.988 6.936,5.268C6.744,5.547 6.416,5.688 5.952,5.688C5.631,5.688 5.372,5.632 5.172,5.52C4.972,5.408 4.82,5.244 4.716,5.028C4.611,4.812 4.543,4.556 4.512,4.26C4.479,3.963 4.464,3.64 4.464,3.288L4.464,0.6L6.768,0.6L6.768,0L4.464,0L4.464,-10.56L6.408,-10.56L6.408,-11.16L0,-11.16L0,-10.56L2.016,-10.56L2.016,0L0,0Z" style="fill:rgb(35,31,32);fill-rule:nonzero;"/>
        </g>
    </g>
    <g transform="matrix(1.33333,0,0,-1.33333,0,494.667)">
        <g id="path164" transform="matrix(1,0,0,1,106.3,285.757)">
            <path d="M0,0C0,-0.624 0.016,-1.268 0.048,-1.932C0.08,-2.596 0.184,-3.196 0.36,-3.732C0.536,-4.268 0.819,-4.708 1.212,-5.052C1.604,-5.396 2.151,-5.568 2.856,-5.568C3.56,-5.568 4.104,-5.396 4.488,-5.052C4.872,-4.708 5.156,-4.268 5.34,-3.732C5.523,-3.196 5.631,-2.596 5.664,-1.932C5.696,-1.268 5.712,-0.624 5.712,0C5.712,0.624 5.696,1.268 5.664,1.932C5.631,2.596 5.523,3.196 5.34,3.732C5.156,4.268 4.872,4.708 4.488,5.052C4.104,5.396 3.56,5.568 2.856,5.568C2.151,5.568 1.604,5.396 1.212,5.052C0.819,4.708 0.536,4.268 0.36,3.732C0.184,3.196 0.08,2.596 0.048,1.932C0.016,1.268 0,0.624 0,0M-2.736,0C-2.736,0.608 -2.645,1.272 -2.46,1.992C-2.276,2.712 -1.968,3.38 -1.536,3.996C-1.104,4.612 -0.532,5.128 0.18,5.544C0.892,5.96 1.784,6.168 2.856,6.168C3.928,6.168 4.82,5.96 5.532,5.544C6.244,5.128 6.816,4.612 7.248,3.996C7.68,3.38 7.988,2.712 8.172,1.992C8.355,1.272 8.448,0.608 8.448,0C8.448,-0.608 8.355,-1.272 8.172,-1.992C7.988,-2.712 7.68,-3.38 7.248,-3.996C6.816,-4.612 6.244,-5.128 5.532,-5.544C4.82,-5.96 3.928,-6.168 2.856,-6.168C1.784,-6.168 0.892,-5.96 0.18,-5.544C-0.532,-5.128 -1.104,-4.612 -1.536,-3.996C-1.968,-3.38 -2.276,-2.712 -2.46,-1.992C-2.645,-1.272 -2.736,-0.608 -2.736,0" style="fill:rgb(35,31,32);fill-rule:nonzero;"/>
        </g>
    </g>
    <g transform="matrix(1.33333,0,0,-1.33333,0,494.667)">
        <g id="path168" transform="matrix(1,0,0,1,118.516,291.038)">
            <path d="M0,0L-2.064,0L-2.064,0.6L2.448,0.6L2.448,-2.16L2.496,-2.16C2.624,-1.809 2.784,-1.452 2.976,-1.092C3.168,-0.732 3.404,-0.404 3.684,-0.108C3.964,0.187 4.28,0.428 4.632,0.612C4.984,0.795 5.392,0.888 5.856,0.888C6.576,0.888 7.12,0.68 7.488,0.264C7.856,-0.152 8.04,-0.712 8.04,-1.416C8.04,-1.896 7.94,-2.284 7.74,-2.58C7.54,-2.876 7.224,-3.024 6.792,-3.024C6.472,-3.024 6.192,-2.913 5.952,-2.688C5.712,-2.464 5.592,-2.168 5.592,-1.8C5.592,-1.625 5.612,-1.416 5.652,-1.176C5.692,-0.936 5.712,-0.736 5.712,-0.576C5.712,-0.4 5.656,-0.256 5.544,-0.144C5.432,-0.032 5.288,0.024 5.112,0.024C4.792,0.024 4.476,-0.132 4.164,-0.444C3.852,-0.756 3.568,-1.164 3.312,-1.668C3.056,-2.172 2.848,-2.745 2.688,-3.384C2.528,-4.024 2.448,-4.665 2.448,-5.304L2.448,-10.56L4.44,-10.56L4.44,-11.16L-2.064,-11.16L-2.064,-10.56L0,-10.56L0,0Z" style="fill:rgb(35,31,32);fill-rule:nonzero;"/>
        </g>
    </g>
    <g transform="matrix(1.33333,0,0,-1.33333,0,494.667)">
        <g id="path172" transform="matrix(1,0,0,1,136.804,288.421)">
            <path d="M0,0C0,0.336 -0.021,0.66 -0.06,0.972C-0.101,1.284 -0.188,1.564 -0.324,1.812C-0.46,2.06 -0.656,2.26 -0.912,2.412C-1.168,2.564 -1.512,2.64 -1.944,2.64C-2.472,2.64 -2.937,2.52 -3.336,2.28C-3.736,2.04 -4.077,1.716 -4.356,1.308C-4.636,0.9 -4.845,0.436 -4.98,-0.084C-5.116,-0.604 -5.184,-1.144 -5.184,-1.704L-5.184,-7.944L-3.288,-7.944L-3.288,-8.544L-9.696,-8.544L-9.696,-7.944L-7.632,-7.944L-7.632,2.616L-9.696,2.616L-9.696,3.216L-5.184,3.216L-5.184,0.96L-5.136,0.96C-4.769,1.776 -4.232,2.404 -3.528,2.844C-2.824,3.284 -1.977,3.504 -0.984,3.504C-0.008,3.504 0.775,3.284 1.368,2.844C1.959,2.404 2.304,1.728 2.4,0.816L2.448,0.816C2.799,1.728 3.352,2.404 4.104,2.844C4.855,3.284 5.672,3.504 6.552,3.504C7.736,3.504 8.62,3.24 9.204,2.712C9.788,2.184 10.08,1.32 10.08,0.12L10.08,-7.944L11.976,-7.944L11.976,-8.544L5.736,-8.544L5.736,-7.944L7.632,-7.944L7.632,0C7.632,0.336 7.611,0.66 7.572,0.972C7.532,1.284 7.448,1.564 7.32,1.812C7.191,2.06 7.008,2.26 6.768,2.412C6.528,2.564 6.216,2.64 5.832,2.64C5.271,2.64 4.779,2.512 4.356,2.256C3.932,2 3.58,1.66 3.3,1.236C3.02,0.812 2.808,0.332 2.664,-0.204C2.52,-0.74 2.448,-1.288 2.448,-1.848L2.448,-7.944L4.344,-7.944L4.344,-8.544L-1.896,-8.544L-1.896,-7.944L0,-7.944L0,0Z" style="fill:rgb(35,31,32);fill-rule:nonzero;"/>
        </g>
    </g>
    <g transform="matrix(1.33333,0,0,-1.33333,0,494.667)">
        <g id="path176" transform="matrix(1,0,0,1,155.283,286.165)">
            <path d="M0,0C-0.368,-0.112 -0.672,-0.236 -0.912,-0.372C-1.152,-0.508 -1.344,-0.688 -1.488,-0.912C-1.632,-1.136 -1.736,-1.42 -1.8,-1.764C-1.864,-2.108 -1.896,-2.544 -1.896,-3.072C-1.896,-3.44 -1.876,-3.792 -1.836,-4.128C-1.796,-4.464 -1.72,-4.756 -1.608,-5.004C-1.497,-5.252 -1.336,-5.452 -1.128,-5.604C-0.92,-5.756 -0.656,-5.832 -0.336,-5.832C0.192,-5.832 0.636,-5.688 0.996,-5.4C1.356,-5.112 1.647,-4.752 1.872,-4.32C2.096,-3.888 2.256,-3.424 2.352,-2.928C2.448,-2.432 2.496,-1.977 2.496,-1.56L2.496,0.744L0,0ZM-0.144,0.648C0.352,0.776 0.8,0.896 1.2,1.008C1.6,1.12 2.032,1.256 2.496,1.416L2.496,2.424C2.496,2.84 2.472,3.216 2.424,3.552C2.376,3.888 2.284,4.176 2.148,4.416C2.012,4.656 1.824,4.84 1.584,4.968C1.344,5.096 1.023,5.16 0.624,5.16C0.016,5.16 -0.472,5.032 -0.84,4.776C-1.208,4.52 -1.392,4 -1.392,3.216C-1.392,2.751 -1.488,2.428 -1.68,2.244C-1.872,2.06 -2.176,1.968 -2.592,1.968C-2.912,1.968 -3.176,2.024 -3.384,2.136C-3.592,2.248 -3.696,2.488 -3.696,2.856C-3.696,3.432 -3.564,3.908 -3.3,4.284C-3.036,4.66 -2.7,4.956 -2.292,5.172C-1.884,5.388 -1.428,5.54 -0.924,5.628C-0.42,5.716 0.072,5.76 0.552,5.76C1.464,5.76 2.208,5.672 2.784,5.496C3.36,5.32 3.808,5.076 4.128,4.764C4.448,4.452 4.664,4.08 4.776,3.648C4.888,3.216 4.944,2.751 4.944,2.256L4.944,-3.84C4.944,-4.304 4.98,-4.66 5.052,-4.908C5.124,-5.156 5.236,-5.336 5.388,-5.448C5.54,-5.56 5.736,-5.628 5.976,-5.652C6.216,-5.676 6.504,-5.688 6.84,-5.688L6.84,-6.288L5.016,-6.288C4.68,-6.288 4.372,-6.276 4.092,-6.252C3.812,-6.228 3.556,-6.16 3.324,-6.048C3.092,-5.937 2.896,-5.78 2.736,-5.58C2.576,-5.38 2.448,-5.096 2.352,-4.728C1.888,-5.448 1.356,-5.937 0.756,-6.192C0.156,-6.448 -0.544,-6.576 -1.344,-6.576C-2.592,-6.576 -3.452,-6.272 -3.924,-5.664C-4.396,-5.056 -4.632,-4.2 -4.632,-3.096C-4.632,-2.088 -4.376,-1.328 -3.864,-0.816C-3.352,-0.304 -2.592,0.072 -1.584,0.312L-0.144,0.648Z" style="fill:rgb(35,31,32);fill-rule:nonzero;"/>
        </g>
    </g>
    <g transform="matrix(1.33333,0,0,-1.33333,0,494.667)">
        <g id="path180" transform="matrix(1,0,0,1,163.155,291.637)">
            <path d="M0,0L1.656,0L1.656,3.192L4.104,3.192L4.104,0L6.768,0L6.768,-0.6L4.104,-0.6L4.104,-9.096C4.104,-9.816 4.191,-10.344 4.368,-10.68C4.544,-11.016 4.88,-11.184 5.376,-11.184C5.84,-11.184 6.187,-11.04 6.42,-10.752C6.651,-10.464 6.864,-10.128 7.056,-9.744L7.608,-9.984L7.392,-10.416C7.152,-10.848 6.804,-11.228 6.348,-11.556C5.892,-11.883 5.232,-12.048 4.368,-12.048C3.744,-12.048 3.252,-11.967 2.892,-11.808C2.532,-11.648 2.26,-11.428 2.076,-11.148C1.892,-10.868 1.776,-10.552 1.728,-10.2C1.68,-9.848 1.656,-9.48 1.656,-9.096L1.656,-0.6L0,-0.6L0,0Z" style="fill:rgb(35,31,32);fill-rule:nonzero;"/>
        </g>
    </g>
    <g transform="matrix(1.33333,0,0,-1.33333,0,494.667)">
        <g id="path184" transform="matrix(1,0,0,1,173.043,295.381)">
            <path d="M0,0C0,0.4 0.144,0.74 0.432,1.02C0.72,1.3 1.056,1.44 1.44,1.44C1.824,1.44 2.16,1.3 2.448,1.02C2.736,0.74 2.88,0.4 2.88,0C2.88,-0.384 2.736,-0.72 2.448,-1.008C2.16,-1.296 1.824,-1.44 1.44,-1.44C1.056,-1.44 0.72,-1.296 0.432,-1.008C0.144,-0.72 0,-0.384 0,0M0.216,-4.344L-1.848,-4.344L-1.848,-3.744L2.664,-3.744L2.664,-14.904L4.728,-14.904L4.728,-15.504L-1.848,-15.504L-1.848,-14.904L0.216,-14.904L0.216,-4.344Z" style="fill:rgb(35,31,32);fill-rule:nonzero;"/>
        </g>
    </g>
    <g transform="matrix(1.33333,0,0,-1.33333,0,494.667)">
        <g id="path188" transform="matrix(1,0,0,1,180.747,296.437)">
            <path d="M0,0L-1.872,0L-1.872,0.6L2.448,0.6L2.448,-10.2L3.912,-10.2L6.696,-5.4L4.392,-5.4L4.392,-4.8L9.456,-4.8L9.456,-5.4L7.584,-5.4L5.328,-9.144L10.392,-15.96L11.4,-15.96L11.4,-16.56L5.472,-16.56L5.472,-15.96L7.344,-15.96L3.696,-10.8L2.448,-10.8L2.448,-15.96L4.368,-15.96L4.368,-16.56L-1.968,-16.56L-1.968,-15.96L0,-15.96L0,0Z" style="fill:rgb(35,31,32);fill-rule:nonzero;"/>
        </g>
    </g>
    <g transform="matrix(1.33333,0,0,-1.33333,0,494.667)">
        <g id="path192" transform="matrix(1,0,0,1,194.978,296.437)">
            <path d="M0,0L-1.872,0L-1.872,0.6L2.448,0.6L2.448,-10.2L3.912,-10.2L6.696,-5.4L4.392,-5.4L4.392,-4.8L9.456,-4.8L9.456,-5.4L7.584,-5.4L5.328,-9.144L10.392,-15.96L11.4,-15.96L11.4,-16.56L5.472,-16.56L5.472,-15.96L7.344,-15.96L3.696,-10.8L2.448,-10.8L2.448,-15.96L4.368,-15.96L4.368,-16.56L-1.968,-16.56L-1.968,-15.96L0,-15.96L0,0Z" style="fill:rgb(35,31,32);fill-rule:nonzero;"/>
        </g>
    </g>
</svg>
