<?xml version="1.0" ?><!DOCTYPE svg  PUBLIC '-//W3C//DTD SVG 1.1//EN'  'http://www.w3.org/Graphics/SVG/1.1/DTD/svg11.dtd'><svg height="2048px" style="shape-rendering:geometricPrecision; text-rendering:geometricPrecision; image-rendering:optimizeQuality; fill-rule:evenodd; clip-rule:evenodd" viewBox="0 0 2048 2048" width="2048px" xml:space="preserve" xmlns="http://www.w3.org/2000/svg" xmlns:xlink="http://www.w3.org/1999/xlink"><defs><style type="text/css">
   <![CDATA[
    .fil3 {fill:none}
    .fil0 {fill:#FFFA04}
    .fil1 {fill:#212121;fill-rule:nonzero}
    .fil2 {fill:#FFFFFE;fill-rule:nonzero}
   ]]>
  </style></defs><g id="Layer_x0020_1"><g id="_337756488"><path class="fil0" d="M530.286 255.999l987.429 0c150.858,0 274.285,123.428 274.285,274.286l0 987.429c0,150.858 -123.428,274.285 -274.285,274.285l-987.429 0c-150.859,0 -274.286,-123.428 -274.286,-274.285l0 -987.429c0,-150.859 123.428,-274.286 274.286,-274.286z" id="_337756536"/><path class="fil1" d="M1425.64 1130.17c-0.0307087,-0.0649607 -0.0236221,-0.0472441 -0.00354331,0.00236221l0.00354331 -0.00236221z" id="_337756656"/><polygon class="fil1" id="_337756128" points="1425.71,1130.34 1425.71,1130.31 1425.64,1130.17 1425.64,1130.18 "/><path class="fil2" d="M690.076 895.912l-0.00236221 0c-5.16142,-82.1859 -11.5831,-184.425 16.115,-246.545 31.7729,-71.2394 77.6304,-120.672 134.042,-152.346 56.1142,-31.5059 122.342,-45.2292 195.279,-45.2292 31.8095,0 110.883,5.51693 185.848,53.8229 45.6024,29.3847 89.615,74.5052 120.45,143.642 28.3099,63.4701 21.6414,164.177 16.3878,243.551 -0.519685,7.86142 -1.02756,15.5162 -1.46811,22.5803 1.91103,0.400394 4.09134,0.707481 6.55276,0.849213 6.23386,-0.33189 13.0925,-1.56024 20.5288,-3.66733 7.9689,-2.25945 16.4185,-5.47796 25.2957,-9.63898 4.52953,-2.11772 9.15946,-3.50551 13.552,-4.39607 5.53229,-1.11969 10.6736,-1.43504 14.6917,-1.43386l0 -0.0507874c5.04567,0 10.2248,0.506693 15.2976,1.47874 4.82481,0.924804 9.51851,2.28425 13.8721,4.04055l0.0602363 0.0153543c13.0878,4.67363 23.8996,11.902 31.611,20.7402 8.25001,9.45827 12.9343,20.7036 13.1693,32.7284l0 0.0496063c0.283465,15.0532 -5.98937,28.7835 -18.7299,41.1012 -11.2937,10.9193 -27.841,20.7083 -49.5579,29.2843l-0.0507874 0c-2.45433,0.967324 -5.42717,2.01142 -8.70473,3.10748 -5.08583,1.69961 -7.2378,2.38465 -9.38623,3.06614 -11.0055,3.4878 -24.8232,7.87205 -36.3803,13.7185 -10.2165,5.16969 -18.9083,11.4473 -22.1551,19.0996 -1.50827,3.55866 -1.93465,7.84961 -1.28032,12.835 0.760631,5.80276 2.97284,12.4488 6.62717,19.8886l0.0188977 -0.00944883c0.111024,0.218504 0.0779528,0.201969 0.47126,1.05827l0.0188977 -0.00826772c0.0980316,0.214961 0.240945,0.536221 0.419292,0.959056 1.45039,3.37914 19.6583,44.9374 57.2481,89.2335 37.2508,43.8945 93.4288,90.1253 170.588,102.842 9.48308,1.55906 17.6079,6.5563 23.2205,13.5543 5.62441,7.01457 8.74725,16.0311 8.21694,25.6051 -0.145276,2.57835 -0.542126,5.22638 -1.18465,7.91457 -0.657875,2.75197 -1.49173,5.30552 -2.49331,7.62993l-0.0188977 -0.00708662c-7.47638,17.3977 -25.6264,31.9406 -54.8634,43.7977 -25.4977,10.3417 -60.2906,19.0453 -104.704,26.2477 -1.44685,4.9689 -3.26693,13.3004 -4.52244,19.0488l-0.0212599 0.0956694c-0.848032,3.88229 -1.76339,7.99016 -3.20197,13.9571l-0.011811 -0.00236221c-1.21181,5.0315 -2.4815,9.92363 -3.85512,14.5878l-0.0141732 -0.00354331c-2.75197,9.38623 -7.74804,16.7941 -14.6539,21.9673 -6.9626,5.21575 -15.489,7.95237 -25.2343,7.95237l-0.670867 0 -0.201969 -0.0507874 -0.491339 -0.00708662 0 0.046063c-3.79607,0 -8.22757,-0.312992 -13.2543,-0.933072 -4.73386,-0.584646 -10.1126,-1.46575 -16.0984,-2.6374 -8.69056,-1.69725 -17.8973,-3.32835 -27.9532,-4.52717 -9.92481,-1.18347 -20.791,-1.95236 -33.0036,-1.95236 -7.09489,0 -14.2795,0.305906 -21.4937,0.914174 -7.4504,0.628347 -14.7721,1.53662 -21.9024,2.72126 -27.0638,4.5 -51.4867,21.7477 -79.8272,41.7614l-0.0236221 -0.0330709 -0.090945 0.0649607 0 0.0496063c-62.9552,44.5217 -120.362,66.7465 -178.224,66.7264 -57.867,-0.0200788 -115.233,-22.2851 -178.101,-66.7382l0.0011811 -0.0011811 -0.0141732 -0.00708662c-28.3122,-20.0114 -52.7693,-37.2992 -79.9312,-41.8229l0.0011811 -0.00826772c-7.13032,-1.17992 -14.4437,-2.08701 -21.8811,-2.71418 -7.213,-0.607087 -14.3917,-0.912993 -21.4843,-0.912993 -12.9083,0 -24.2764,0.97441 -34.2095,2.30433 -9.66379,1.29331 -18.9295,3.10394 -26.7473,4.63111 -5.46142,1.07244 -10.552,2.07166 -14.9847,2.75551 -5.07756,0.783071 -9.8445,1.28032 -14.3705,1.28032 -11.139,0 -19.6063,-3.1252 -26.0339,-7.80237l0 -0.0507874c-8.57127,-6.23741 -12.9791,-14.8193 -15.2232,-22.4587 -1.61221,-5.48622 -2.87717,-10.3665 -3.95788,-14.9114 -1.05236,-4.42914 -2.0941,-9.2067 -3.11811,-13.9158l-0.0531496 -0.239764c-1.2626,-5.77205 -3.07796,-14.0717 -4.52126,-19.0252 -44.4012,-7.19764 -79.1918,-15.9106 -104.691,-26.2725 -29.2689,-11.8925 -47.4355,-26.4886 -54.9083,-43.9607l0 -0.0507874c-1.11024,-2.62205 -1.95354,-5.13426 -2.51929,-7.52008 -0.591733,-2.49095 -0.968505,-5.11772 -1.12441,-7.8626 -0.525591,-9.57639 2.60197,-18.5953 8.22757,-25.611 5.61024,-6.99804 13.735,-11.9976 23.2217,-13.5626 77.1225,-12.6945 133.297,-58.9241 170.554,-102.822 37.5555,-44.2512 55.8189,-85.9123 57.2764,-89.3044l0.0283465 0.0129921c0.446457,-1.07599 0.536221,-1.27205 0.605906,-1.41969l0.0188977 0.00944883 0.0968505 -0.20315 0.101575 -0.201969c3.69567,-7.50473 5.93268,-14.2051 6.7004,-20.0528 0.651969,-4.96418 0.233858,-9.23859 -1.25787,-12.7843l-0.0188977 0.00708662c-7.03583,-16.5721 -38.0185,-26.413 -58.5272,-32.9244l-0.0129921 0 -0.0129921 0.0413386c-1.66772,-0.526772 -3.3626,-1.06299 -9.29056,-3.04016 -3.66024,-1.22008 -6.75709,-2.29606 -8.84174,-3.11929 -25.7445,-10.1693 -42.241,-21.3366 -52.5059,-32.3599 -15.3803,-16.5165 -17.4579,-32.8607 -14.9622,-45.9768 2.83229,-14.9232 12.5232,-27.2315 25.1634,-35.9268 13.2945,-9.14292 30.1205,-14.4248 45.3721,-14.4248 4.24016,0 8.44961,0.426378 12.5929,1.27441 4.12441,0.84567 8.04449,2.13189 11.7295,3.8563 9.56576,4.48465 18.6437,7.87442 27.1654,10.1539 8.01379,2.14252 15.4039,3.22205 22.1091,3.22205 3.87756,0 7.07953,-0.36378 9.70276,-0.90945 -0.264567,-4.28032 -0.552756,-8.86182 -0.836221,-13.3854l-0.376772 -5.98819 0 -0.0507874 -0.00354331 -0.0614174z" id="_337756320"/><path class="fil1" d="M674.073 899.799l0 -3.88701 0 -0.00354331c-5.25709,-83.7355 -11.6457,-187.552 17.5536,-253.041 16.6016,-37.2248 36.8929,-68.7627 60.4063,-95.1355 23.6965,-26.5784 50.6481,-47.9528 80.3847,-64.6477 29.3799,-16.4953 61.4115,-28.337 95.6446,-36.0544 34.0134,-7.66772 69.9662,-11.2382 107.447,-11.2382 20.0634,0 58.2142,2.1189 102.744,15.0142 29.0622,8.41654 60.75,21.411 91.728,41.3717 25.5225,16.4457 50.563,37.5638 73.278,64.6524 19.8874,23.7166 38.0067,52.0642 53.1095,85.9276 29.9374,67.1186 23.1295,169.965 17.765,251.029l-0.0011811 0 0 0.0212599 -0.0956694 1.45039 -0.22441 3.4004c1.77047,-0.402756 3.66496,-0.891733 5.68347,-1.46339 3.39095,-0.961418 7.04174,-2.1874 10.937,-3.67087 4.22481,-1.60984 8.20512,-3.29055 11.9209,-5.0315 2.94213,-1.37599 5.71536,-2.46024 8.31379,-3.30355l0.0625985 0c2.85827,-0.925985 5.82402,-1.67717 8.8004,-2.27953 0.611811,-0.124016 1.21772,-0.239764 1.81654,-0.347244l0 -1.51299 16.0004 0c2.64803,0 5.70709,0.170079 9.11457,0.497244 3.26693,0.316536 6.34252,0.750001 9.18308,1.29449 2.70709,0.518504 5.57835,1.2189 8.57835,2.09173 2.58898,0.753544 5.04331,1.57914 7.33111,2.46732l0.398032 0.121654c7.6689,2.7378 14.7307,6.25512 21.0567,10.4043 6.51733,4.27559 12.2894,9.29528 17.1791,14.8984 5.35748,6.14292 9.56221,12.9036 12.4606,20.1095 2.89488,7.19292 4.49055,14.8488 4.64646,22.8059l0.0625985 0.312992 0 0.0496063 -0.0590552 0c0.147638,9.81497 -1.82835,19.2177 -5.91615,28.1894 -3.96851,8.70709 -9.87048,16.8508 -17.6929,24.4122 -6.55985,6.34371 -14.5087,12.2752 -23.824,17.7803 -9.05906,5.35276 -19.3725,10.3181 -30.9213,14.8784l-0.220866 0.0425197c-1.37953,0.542126 -2.86654,1.09252 -4.43622,1.65118 -0.751182,0.266929 -2.4874,0.853938 -4.91103,1.66417l-5.91969 1.97717c-3.70866,1.20591 -3.3189,1.08898 -3.71575,1.21417 -6.01654,1.9063 -12.7996,4.05827 -17.4213,5.72481 -5.60434,2.02087 -11.3102,4.3252 -16.5851,6.99331 -4.18347,2.11654 -7.92875,4.35709 -10.7539,6.68032 -1.9441,1.59921 -3.3437,3.10512 -3.90118,4.41969l-0.022441 -0.00944883c-0.108662,0.279921 -0.188977,0.682678 -0.239764,1.20236 -0.0944883,0.949607 -0.0578741,2.06221 0.10748,3.32953 0.253937,1.94055 0.770079,4.07835 1.54252,6.39804 0.198425,0.597638 0.415748,1.20827 0.649607,1.83189l3.16418 7.07835 0.0129921 0.0295276 0.00236221 0.00354331 0.167717 0.375591 0.135827 0.305906 0.0165354 0.0318898 0.0165354 0.0413386 0.177165 0.39567 0.179528 0.401575 0.125197 0.186614 0.239764 0.557481 0 0.0625985c0.68504,1.59803 5.33386,12.2232 14.1969,27.5858 9.00709,15.613 22.3878,36.1807 40.552,57.5859 19.6488,23.1543 44.8016,46.9748 75.7489,65.6315 24.6815,14.8795 53.0445,26.4721 85.2142,31.7729 6.71575,1.10315 12.9036,3.37323 18.3662,6.56103 5.65158,3.29882 10.6347,7.63938 14.7284,12.7429 4.06654,5.07166 7.21772,10.8898 9.23623,17.1827 1.95945,6.10276 2.85118,12.6213 2.4815,19.298 -0.10748,1.92874 -0.285827,3.71575 -0.530315,5.35158l0 0.0625985c-0.198425,1.32165 -0.563386,3.09449 -1.09252,5.3126 -0.504331,2.11181 -0.983859,3.8563 -1.43032,5.22756 -0.607087,1.86024 -1.23425,3.54095 -1.87559,5.02796l-6.02245 13.9595 -1.66654 -0.624804c-4.3441,5.9315 -9.79017,11.5169 -16.35,16.7587 -10.4445,8.34568 -23.6043,15.7382 -39.5303,22.1965 -13.415,5.44016 -29.1969,10.4327 -47.3835,14.9882 -14.9102,3.73465 -31.6914,7.21418 -50.3634,10.4457 -0.472441,2.10709 -1.22599,5.55 -1.85433,8.42481l-0.0625985 0.0625985 -0.00472441 0.0236221 0.046063 0.00944883 -1.44213 6.32245c-0.490158,2.15433 -1.09252,4.71851 -1.88504,8.01024l-3.60355 14.941 -0.316536 -0.0637796 -0.134646 0.458268 -4.33819 14.7118 -1.82244 -0.455906c-0.530315,0.897638 -1.08307,1.77638 -1.65591,2.63622 -3.45118,5.17205 -7.67245,9.62953 -12.6012,13.3217 -4.99961,3.74528 -10.5024,6.57875 -16.4374,8.44843 -1.2248,0.386221 -2.46614,0.731103 -3.72284,1.03701l0 1.70551 -13.3725 0c-0.420473,0.00826772 -0.840946,0.011811 -1.26378,0.011811l-0.670867 0 -0.090945 -0.011811 -0.602363 0c-2.05394,0 -4.48583,-0.0992127 -7.28386,-0.296457l0 -0.00472441c-2.75551,-0.193701 -5.4,-0.447638 -7.90749,-0.757087 -1.9878,-0.245669 -4.72323,-0.654331 -8.20631,-1.22362 -3.42048,-0.561024 -6.43701,-1.09724 -9.01772,-1.60158 -4.74685,-0.925985 -9.23741,-1.77047 -12.965,-2.38819 -4.0689,-0.673229 -8.59843,-1.3311 -13.8,-1.95118 -4.91103,-0.584646 -9.82796,-1.05473 -14.7071,-1.35709 -4.83898,-0.3 -10.2673,-0.470079 -16.4221,-0.470079 -4.1126,0 -7.47048,0.056693 -10.0748,0.166536 -2.66575,0.112205 -6.03426,0.341339 -10.1067,0.68504 -3.47717,0.292914 -6.96851,0.657875 -10.4599,1.09134 -3.98268,0.494882 -7.39016,0.976772 -10.1917,1.44213 -23.0032,3.82441 -45.7052,19.6595 -71.9245,38.1709l-12.4772 12.476 -1.85551 -2.59843c-27.9225,18.6295 -54.9662,32.9788 -81.6449,43.0489 -31.2213,11.7862 -61.8993,17.6705 -92.8264,17.6599 -30.9366,-0.00944883 -61.6052,-5.91615 -92.7993,-17.7071 -30.6095,-11.5689 -61.6855,-28.7599 -94.0064,-51.567l-0.183071 -0.0980316 -0.00708662 -0.00472441 -0.312992 -0.250394c-26.7236,-18.8882 -49.813,-35.2087 -73.3607,-39.13l-2.14016 -0.356693c-2.32677,-0.354331 -4.99252,-0.718111 -7.99607,-1.09016 -3.48307,-0.432284 -6.96378,-0.794883 -10.4315,-1.0878 -4.07481,-0.34252 -7.45394,-0.572835 -10.1079,-0.68504 -2.59606,-0.108662 -5.94804,-0.165354 -10.0642,-0.165354 -6.27402,0 -11.9457,0.220866 -17.0965,0.590552 -5.69056,0.408662 -10.6583,0.937796 -15.0508,1.52599 -8.48859,1.13622 -17.8004,2.95394 -25.663,4.48937l0.00236221 0.011811 -0.0236221 0.00472441 -0.0625985 0c-1.4811,0.290551 -2.85473,0.562205 -8.00316,1.52362 -3.17835,0.592914 -5.85827,1.07599 -7.60749,1.34764l0.0011811 0.00944883c-2.22874,0.343701 -4.94055,0.676772 -8.39292,0.996851 -3.2563,0.301181 -6.09095,0.47126 -8.41536,0.47126 -6.8752,0 -13.0996,-0.959056 -18.7228,-2.64331 -6.32245,-1.89449 -11.8559,-4.7693 -16.6854,-8.28426l-6.62599 -4.82363 0 -0.914174c-2.47677,-2.49921 -4.61457,-5.14489 -6.45591,-7.8626 -3.92363,-5.78859 -6.45709,-11.765 -8.07875,-17.2843 -0.874016,-2.97166 -1.63347,-5.70473 -2.30315,-8.24528 -0.905906,-3.43229 -1.51417,-5.82993 -1.90512,-7.47875 -0.120473,-0.506693 -0.538583,-2.46378 -1.56969,-7.10316 -2.25236,-10.128 -1.02756,-4.43504 -1.61102,-7.1256l0.046063 -0.0106299 -0.0366142 -0.166536 -0.0307087 -0.0755906 -0.0330709 0.00708662 -0.0448819 -0.200788 -0.0165354 -0.0425197 -0.0011811 -0.00590552 0.00708662 -0.0011811c-0.538583,-2.45906 -1.16929,-5.34685 -1.80354,-8.14489 -18.6638,-3.22914 -35.439,-6.71103 -50.3457,-10.448 -18.1878,-4.5626 -33.9709,-9.55985 -47.3811,-15.0106 -16.037,-6.51497 -29.2288,-13.9299 -39.6284,-22.2626 -11.2087,-8.98229 -19.1788,-19.0606 -23.9669,-30.2599l-0.0472441 -0.22441c-0.731103,-1.7315 -1.35118,-3.35788 -1.85669,-4.86969 -0.670867,-2.00433 -1.17047,-3.68977 -1.49055,-5.03977 -0.370866,-1.5626 -0.698032,-3.32362 -0.976772,-5.27835 -0.239764,-1.67244 -0.414567,-3.47481 -0.523229,-5.39646 -0.366142,-6.68268 0.527953,-13.2024 2.4874,-19.3004 2.02205,-6.29646 5.17559,-12.1169 9.24095,-17.1862 4.09134,-5.10237 9.07442,-9.4441 14.726,-12.7441 5.45906,-3.18898 11.648,-5.45906 18.3697,-6.56812 32.1544,-5.29252 60.5067,-16.8768 85.1823,-31.7528 30.9414,-18.6532 56.0941,-42.476 75.7465,-65.6315 18.1465,-21.3827 31.5331,-41.9646 40.5508,-57.5989 8.77205,-15.2079 13.5225,-26.0681 14.2264,-27.7063l5.02205 -11.6858c0.705119,-2.18504 1.17402,-4.16103 1.40433,-5.91851 0.165354,-1.26614 0.20315,-2.37047 0.112205,-3.30236 -0.0330709,-0.330709 -0.0744095,-0.61063 -0.125197,-0.836221l-0.138189 -0.325985c-1.73504,-4.08544 -8.33741,-8.25827 -16.3996,-12.1099 -6.30355,-3.01181 -13.3973,-5.6504 -20.204,-7.95945l-12.0756 -3.81378c-0.348425,-0.109843 0.656693,0.206693 -3.17126,-1.03819l-6.36851 -2.12717 0.00590552 -0.0188977c-2.66221,-0.885827 -4.50118,-1.50473 -5.20512,-1.75158 -2.34449,-0.823229 -3.91418,-1.38543 -4.45512,-1.59921 -12.9744,-5.12363 -23.9835,-10.6465 -33.3083,-16.3925 -10.5638,-6.50906 -18.7429,-13.2366 -25.0099,-19.9677 -8.68701,-9.32835 -14.0351,-18.8043 -17.0244,-27.991 -3.73347,-11.4756 -3.74646,-22.291 -1.93819,-31.7977 1.8,-9.48544 5.67048,-18.1335 11.0433,-25.8036 5.57599,-7.96064 12.7122,-14.7851 20.7449,-20.3103 7.91221,-5.44134 16.8721,-9.73938 26.1213,-12.6791 9.463,-3.00709 19.1622,-4.62166 28.3134,-4.62166 2.33622,0 4.97126,0.148819 7.89449,0.444095 2.62795,0.265748 5.263,0.669686 7.88623,1.20591 2.91496,0.596457 5.53701,1.27795 7.84843,2.03858l-0.00590552 0.0188977c2.40473,0.791339 4.89213,1.78937 7.44922,2.98583 4.38544,2.05512 8.64804,3.85748 12.7748,5.4 3.81142,1.42441 7.73859,2.67874 11.765,3.75473 3.44764,0.921261 6.67678,1.60276 9.67796,2.03977l0.790158 0.111024zm31.9382 -4.89449l0.0555119 0.88819 0.0129921 0.180709 0 0.0448819 0.314173 4.9937 0 0.0625985 0.836221 13.3854 0.859843 13.7469 -13.5473 2.81575c-1.79646,0.373229 -3.81378,0.687402 -6.06851,0.90945 -2.4189,0.238583 -4.74213,0.375591 -6.88465,0.375591 -3.99095,0 -8.26536,-0.333071 -12.8067,-0.994489 -4.37599,-0.636615 -8.85709,-1.56851 -13.4268,-2.79095 -4.50237,-1.20473 -9.38859,-2.79095 -14.6421,-4.75394 -4.9252,-1.84134 -9.97914,-3.97559 -15.1488,-6.39922 -1.10079,-0.514961 -2.39646,-1.01811 -3.87992,-1.50473l-0.0625985 0c-1.60394,-0.527953 -3.01536,-0.917717 -4.22481,-1.16457 -1.51772,-0.31063 -3.06733,-0.546851 -4.63583,-0.705119 -1.27323,-0.12874 -2.86654,-0.193701 -4.7693,-0.193701 -6.15237,0 -12.5528,1.04646 -18.6874,2.99646 -6.24213,1.98425 -12.287,4.88386 -17.6221,8.55237 -5.07993,3.4937 -9.47599,7.64174 -12.7465,12.3118 -2.83465,4.04646 -4.86733,8.55355 -5.79213,13.428 -0.921261,4.84252 -0.925985,10.3146 0.938977,16.0488 1.64764,5.06457 4.77992,10.4858 10.0228,16.1162 4.48701,4.8189 10.487,9.72402 18.3862,14.5913 7.45394,4.59331 16.7693,9.21142 28.3075,13.7681 1.54016,0.609449 2.56536,0.999213 3.20551,1.22362 2.27362,0.798426 3.79607,1.32402 4.76103,1.64528l0.0625985 0c0.807875,0.269292 3.17362,1.04291 6.11811,2.00197 1.08425,0.351969 0.907087,0.276378 2.92323,0.912993l-0.00472441 0.0165354 0.0307087 0.00472441c10.7303,3.40748 24.2043,7.68662 36.378,13.5024 8.81812,4.213 16.9146,9.26103 23.0705,15.4358l3.03425 -1.1374 5.79331 13.774 0.125197 0.287008 -0.00354331 0.0011811 0.022441 0.0543308c1.38307,3.28819 2.25709,6.78662 2.62087,10.4823 0.328347,3.33189 0.248032,6.85276 -0.237402,10.552 -0.518504,3.95788 -1.50118,8.10119 -2.94095,12.4087 -1.34764,4.03229 -3.08268,8.21339 -5.20276,12.5291l-0.0507874 0.121654 0.0177165 0.00826772 -0.0968505 0.20315 -0.080315 0.168898 -0.232677 0.553937 -6.37323 15.1878 -0.800788 -0.367323c-2.35512,4.55906 -5.31024,10.0347 -8.89371,16.2461 -9.86576,17.1047 -24.3933,39.4843 -43.7989,62.3493 -21.6248,25.4788 -49.3678,51.7323 -83.6221,72.3827 -27.8091,16.7646 -59.9197,29.8465 -96.5564,35.8772 -2.60669,0.429922 -5.0941,1.36181 -7.37127,2.69173 -2.34449,1.3689 -4.36654,3.11339 -5.97638,5.12126 -1.65118,2.05984 -2.92796,4.40906 -3.73937,6.93426 -0.78189,2.43425 -1.1374,5.06811 -0.987402,7.80119 0.046063,0.817323 0.138189,1.70197 0.272835,2.64685 0.0956694,0.669686 0.255118,1.47284 0.475985,2.40355 0.243307,1.02874 0.45,1.79291 0.616536,2.29016 0.32126,0.960237 0.664961,1.86969 1.02284,2.7189l0.00472441 -0.0011811c2.6811,6.27166 7.53544,12.2303 14.5937,17.8866 7.86851,6.30473 18.3969,12.137 31.6276,17.5122 12.0862,4.91221 26.4532,9.45237 43.1315,13.6358 17.2276,4.31929 36.5681,8.21575 58.0595,11.6988l9.98623 1.61811 2.8252 9.6945c1.76575,6.05906 3.5752,14.3291 4.83307,20.0823l0.0625985 0.249213 0.0011811 0.00590552 -0.00708662 0.0011811c1.60276,7.38544 0.270473,1.53543 1.48347,6.98977l1.56969 6.60237c0.687402,2.89488 1.25551,5.21457 1.65473,6.72756 0.633071,2.40236 1.31457,4.85906 2.05276,7.37127 0.833859,2.83937 2.05276,5.78859 3.82914,8.40946 1.40197,2.06811 3.1878,4.02284 5.4567,5.67402l1.07008 0.779528c1.68898,1.07126 3.67087,1.98662 5.99174,2.68229 2.69292,0.806694 5.86772,1.26614 9.59765,1.26614 2.2004,0 4.01457,-0.080315 5.54056,-0.220866 1.33228,-0.122835 3.54449,-0.432284 6.39213,-0.871654l0.0625985 0c2.6811,-0.412205 4.74213,-0.770079 6.54449,-1.10669l7.69253 -1.51181 -0.00236221 -0.011811 0.0236221 -0.00472441 0.0625985 0c7.74804,-1.51299 16.9276,-3.30709 27.724,-4.75158 5.53819,-0.740552 11.2264,-1.36654 16.9264,-1.77638 6.24331,-0.448819 12.7122,-0.715749 19.3453,-0.715749 2.96811,0 6.75237,0.0980316 11.3138,0.290551 4.51418,0.191339 8.33977,0.421654 11.4827,0.68504 3.96851,0.334252 7.86615,0.739371 11.6811,1.21299 3.29882,0.408662 7.12323,0.97441 11.4508,1.68898l0.0602363 0.00944883 0 -0.0011811 0.212599 0.0366142 15.1843 2.50984 -0.161811 1.13268c24.1429,7.62756 45.9733,22.9606 70.5012,40.2969l18.5433 9.27048 -2.01378 2.01378c24.665,16.1705 48.4016,28.6453 71.6044,37.415 27.6697,10.4587 54.6237,15.698 81.5505,15.7063 26.9315,0.00944883 53.8949,-5.20867 81.5776,-15.6591 27.2374,-10.2815 55.2201,-25.6725 84.5812,-46.1693l2.81457 -2.01024 0.090945 -0.0649607 12.9591 -9.25749 0.090945 0.126378c24.6473,-17.0988 47.263,-30.9874 73.4882,-35.3469 4.31811,-0.71693 8.1319,-1.2815 11.4437,-1.69252 3.82323,-0.474804 7.72914,-0.882284 11.7095,-1.21654 3.14055,-0.264567 6.97796,-0.493701 11.4815,-0.68504 4.5626,-0.193701 8.34449,-0.291733 11.3244,-0.291733 6.05552,0 12.1701,0.216142 18.2977,0.595276 6.08623,0.376772 11.5701,0.884646 16.5803,1.48228 4.85197,0.578741 9.95906,1.33819 15.1772,2.20158 5.56063,0.921261 10.0217,1.74449 13.9642,2.51339 3.40276,0.664961 6.07205,1.15748 8.01851,1.47638 1.88386,0.308268 4.21063,0.634252 6.95434,0.973229 2.50158,0.308268 4.57678,0.520867 6.22087,0.636615l0.0614174 0c1.61575,0.113386 3.29764,0.17126 5.03504,0.17126l0 0.0141732 0.187795 0.00236221 0.491339 0.00708662 0.0141732 0.0011811 0 -0.0129921 0.670867 0c3.26575,0 6.22796,-0.426378 8.85827,-1.25433 2.54292,-0.800788 4.82599,-1.95827 6.81378,-3.44764 2.00197,-1.5 3.75473,-3.36496 5.22638,-5.57126 1.5437,-2.31496 2.77914,-5.01733 3.67796,-8.08347l0.0165354 -0.0578741 -0.00236221 -0.0011811c0.620079,-2.10473 1.24252,-4.35709 1.8626,-6.7193 0.871654,-3.30827 1.44331,-5.55119 1.80473,-7.05591l0.0141732 -0.0590552 -0.00236221 -0.0011811c0.643701,-2.67284 1.22244,-5.14843 1.75984,-7.50945 0.175984,-0.775985 0.464174,-2.16614 1.31693,-6.07205l0.0625985 -0.0625985 0.00472441 -0.0236221 -0.046063 -0.00944883c0.484252,-2.21811 1.06654,-4.88386 2.25236,-10.0039 0.800788,-3.46181 1.68425,-7.01457 2.58307,-10.1079l2.81811 -9.69331 9.99331 -1.61929c21.4973,-3.48544 40.8414,-7.38071 58.0701,-11.6965 16.6866,-4.17992 31.0536,-8.71418 43.1339,-13.6134 13.3087,-5.39646 23.8477,-11.2075 31.6547,-17.4461 6.97087,-5.57008 11.7992,-11.5169 14.5217,-17.8524l0.479528 -1.11496c0.157087,-0.4063 0.295276,-0.791339 0.413386,-1.15394 0.383859,-1.17638 0.654331,-2.08937 0.806694,-2.72835 0.112205,-0.47126 0.269292,-1.37244 0.466536,-2.68819l0.00944883 0.0011811c0.142913,-0.973229 0.236221,-1.78228 0.270473,-2.41536 0.151181,-2.73662 -0.201969,-5.37048 -0.981497,-7.79882 -0.810237,-2.5252 -2.08583,-4.87323 -3.73465,-6.93071 -1.60866,-2.00669 -3.63189,-3.75 -5.97874,-5.12008 -2.27244,-1.32638 -4.75867,-2.25591 -7.36772,-2.68465 -36.6555,-6.04016 -68.7756,-19.1291 -96.5883,-35.8973 -34.2603,-20.654 -62.0044,-46.9052 -83.6245,-72.3827 -19.4221,-22.8874 -33.9437,-45.2516 -43.8,-62.3363 -3.86103,-6.69213 -7.00276,-12.5646 -9.45001,-17.3563l-0.214961 0.0933072 -3.11693 -6.80788c-1.76811,-3.67914 -2.8063,-6.05315 -3.14292,-6.83504l-0.022441 0.00944883 -0.239764 -0.557481 0.0212599 -0.00944883 -0.0330709 -0.0720473 -0.45 -0.975591c-2.05984,-4.22599 -3.75,-8.3126 -5.06221,-12.2516 -1.4374,-4.31457 -2.41181,-8.40946 -2.91733,-12.2728 -0.486615,-3.71693 -0.564567,-7.24725 -0.232677,-10.5791 0.369685,-3.72402 1.25197,-7.2319 2.63858,-10.5059l0 -0.0625985c2.68819,-6.33308 7.26142,-11.798 13.0264,-16.5425 4.88622,-4.01811 10.598,-7.50473 16.6288,-10.5567 6.28111,-3.17717 13.2662,-5.98937 20.2087,-8.49331 7.9252,-2.85827 13.5579,-4.6441 18.5457,-6.2256 2.54646,-0.805512 2.64449,-0.822048 3.46772,-1.08898 2.72953,-0.887009 4.95118,-1.61221 5.6693,-1.85197 0.852757,-0.284646 2.24528,-0.770079 4.41024,-1.53898 1.30158,-0.464174 2.49449,-0.904725 3.53386,-1.31457l-0.0011811 -0.00354331c10.1528,-4.00866 18.9638,-8.22402 26.4213,-12.6295 7.22245,-4.26851 13.2118,-8.70001 17.9492,-13.2803 4.9252,-4.76103 8.53347,-9.65198 10.8165,-14.661 2.11654,-4.64646 3.13229,-9.54213 3.0378,-14.6764l0 -0.0141732 -0.0625985 -0.249213 0 -0.0496063 0.0543308 0c-0.113386,-3.85158 -0.93189,-7.62875 -2.38701,-11.2441 -1.56614,-3.89292 -3.87284,-7.58741 -6.83623,-10.9843 -2.8878,-3.30945 -6.47481,-6.39095 -10.6784,-9.14883 -4.20709,-2.76024 -9.00473,-5.13544 -14.3079,-7.02875l0.0165354 -0.046063 -0.638977 -0.219685c-1.7941,-0.724016 -3.54567,-1.33347 -5.23111,-1.8248 -1.65827,-0.48189 -3.56693,-0.93189 -5.70355,-1.34055 -2.24528,-0.429922 -4.31575,-0.73819 -6.18308,-0.918898 -1.69134,-0.161811 -3.73465,-0.246851 -6.11457,-0.246851l0 -0.011811c-1.69488,0 -3.70748,0.0779528 -5.97638,0.298819 -1.81772,0.175984 -3.70866,0.441733 -5.59016,0.822048 -1.60984,0.325985 -3.36024,0.778347 -5.24528,1.3878l0.00590552 0.0177165c-1.72795,0.561024 -3.31772,1.16339 -4.6878,1.80354 -5.1567,2.41654 -9.84095,4.42796 -14.0469,6.03071 -4.54016,1.72914 -9.10749,3.24685 -13.6866,4.54489 -4.0063,1.13504 -8.08583,2.07402 -12.2256,2.81457l0 0.0625985c-3.8504,0.687402 -7.78938,1.14095 -11.8028,1.35354l-1.6878 0c-1.38189,-0.0791339 -2.89016,-0.230315 -4.48583,-0.437008 -1.77756,-0.230315 -3.24803,-0.474804 -4.44213,-0.725197l-13.5437 -2.84055 0.8563 -13.7221c0.478347,-7.67363 0.921261,-14.3646 1.37244,-21.1925l0.0956694 -1.45039 0.0011811 0 0 -0.0212599c5.14134,-77.6764 11.6634,-176.221 -15.013,-236.029 -13.774,-30.8847 -30.3177,-56.7615 -48.4867,-78.4276 -20.4957,-24.4429 -43.0548,-43.4752 -66.026,-58.2768 -28.2083,-18.176 -56.9906,-29.9882 -83.354,-37.6229 -40.4457,-11.713 -75.43,-13.637 -93.8694,-13.637 -35.4555,0 -69.0875,3.29292 -100.448,10.3618 -31.1421,7.0193 -60.2847,17.7945 -87.0178,32.804 -26.6729,14.9752 -50.8595,34.1587 -72.1359,58.0241 -21.4618,24.0709 -39.9898,52.8733 -55.1575,86.8843 -24.4795,54.9036 -20.4402,146.471 -15.6732,224.045l0.0649607 0 0.804331 13.9583 0.0649607 1.03465zm789.409 61.4493l0 -0.0011811m0 0.0141732l0 -0.0129921m-804.863 148.952l-0.0011811 0.00236221" id="_337756416"/></g></g><rect class="fil3" height="2048" width="2048"/></svg>