<?xml version="1.0" ?><!DOCTYPE svg  PUBLIC '-//W3C//DTD SVG 1.1//EN'  'http://www.w3.org/Graphics/SVG/1.1/DTD/svg11.dtd'><svg enable-background="new 0 0 512 512" height="512px" id="Layer_1" version="1.1" viewBox="0 0 512 512" width="512px" xml:space="preserve" xmlns="http://www.w3.org/2000/svg" xmlns:xlink="http://www.w3.org/1999/xlink"><path d="M512,432c0,44.182-35.816,80-80,80H80c-44.183,0-80-35.818-80-80V80C0,35.817,35.818,0,80,0h352  c44.184,0,80,35.817,80,80V432z" fill="#181616"/><path d="M362.43,154.018l-0.742-0.743c-27.116-26.927-64.461-43.567-105.691-43.567  C173.165,109.707,106,176.863,106,259.711c0,41.254,16.659,78.613,43.616,105.726l0.629,0.63L296.18,512H432  c44.184,0,80-35.818,80-80V303.588L362.43,154.018z" fill="#0C0C0C"/><path clip-rule="evenodd" d="M255.996,109.707C173.165,109.707,106,176.863,106,259.711  c0,66.266,42.976,122.487,102.587,142.324c7.5,1.376,10.233-3.255,10.233-7.229c0-3.561-0.125-12.994-0.198-25.512  c-41.725,9.064-50.529-20.106-50.529-20.106c-6.826-17.329-16.654-21.942-16.654-21.942c-13.624-9.308,1.034-9.119,1.034-9.119  c15.054,1.062,22.967,15.458,22.967,15.458c13.381,22.923,35.107,16.304,43.659,12.464c1.358-9.694,5.243-16.304,9.523-20.054  c-33.309-3.785-68.325-16.653-68.325-74.134c0-16.375,5.845-29.766,15.44-40.25c-1.538-3.795-6.69-19.046,1.466-39.693  c0,0,12.599-4.038,41.258,15.377c11.96-3.327,24.793-5,37.553-5.054c12.732,0.054,25.565,1.727,37.554,5.054  c28.631-19.415,41.202-15.377,41.202-15.377c8.184,20.647,3.04,35.898,1.493,39.693c9.614,10.485,15.413,23.875,15.413,40.25  c0,57.624-35.071,70.304-68.486,74.018c5.395,4.632,10.188,13.785,10.188,27.778c0,20.054-0.189,36.23-0.189,41.149  c0,4.011,2.708,8.678,10.323,7.212C363.062,382.144,406,325.959,406,259.711C406,176.863,338.835,109.707,255.996,109.707z" fill="#FFFFFF" fill-rule="evenodd"/></svg>